<svg xmlns="http://www.w3.org/2000/svg" id="Layer_1" data-name="Layer 1" viewBox="0 0 1024 1024" width="1024" height="1024"><defs>
    <style>
      .cls-1 {
        fill: #1bb7e4;
      }

      .cls-2 {
        fill: #f0597a;
      }

      .cls-3 {
        fill: #eec322;
      }

      .cls-4 {
        fill: #1f2124;
      }
    </style>
  </defs><circle class="cls-3" cx="512" cy="512" r="501.85"></circle><circle class="cls-4" cx="512" cy="512" r="446.8"></circle><g>
    <rect class="cls-1" x="745.99" y="401.02" width="55.06" height="247.75"></rect>
    <path class="cls-1" d="M594.58,401.02c-68.41,0-123.87,55.46-123.87,123.87s55.46,123.87,123.87,123.87,123.87-55.46,123.87-123.87h0c0-68.41-55.46-123.87-123.87-123.87ZM594.58,593.71c-38.01,0-68.82-30.81-68.82-68.82s30.81-68.82,68.82-68.82,68.82,30.81,68.82,68.82-30.81,68.82-68.82,68.82h0Z"></path>
    <path class="cls-1" d="M319.31,401.02c-24.5-.03-48.46,7.24-68.82,20.88v-20.88h-55.06v342.66h55.06v-218.78c0-38.01,30.81-68.82,68.82-68.82s68.82,30.81,68.82,68.82-30.81,68.82-68.82,68.82h-13.76v55.06h13.76c68.41,0,123.87-55.46,123.87-123.87s-55.46-123.87-123.87-123.87Z"></path>
    <path class="cls-2" d="M793.68,285.8c-12.97,0-20.16,9.36-20.16,9.36,0,0-7.19-9.36-20.16-9.36-13.61,0-24.64,11.03-24.64,24.64,0,18.69,22.01,36.8,28.14,42.52,7.07,6.59,16.66,15.05,16.66,15.05,0,0,9.6-8.47,16.66-15.05,6.13-5.72,28.14-23.83,28.14-42.52,0-13.61-11.03-24.64-24.64-24.64Z"></path>
  </g></svg>