<svg id="Layer_1" data-name="Layer 1" xmlns="http://www.w3.org/2000/svg" viewBox="0 0 299 218.81"><defs><style>.cls-1{fill:#1bb7e4;}.cls-2{fill:#f05a7a;}</style></defs><rect class="cls-1" x="260" y="57" width="26" height="117"/><path class="cls-1" d="M288.5,201.93a58.5,58.5,0,1,0,58.5,58.5A58.5,58.5,0,0,0,288.5,201.93Zm0,91a32.5,32.5,0,1,1,32.5-32.5A32.5,32.5,0,0,1,288.5,292.93Z" transform="translate(-100 -144.93)"/><path class="cls-1" d="M126,260.43" transform="translate(-100 -144.93)"/><path class="cls-1" d="M158.5,201.93a58.22,58.22,0,0,0-32.5,9.85v-9.85H100V363.74h26V260.43a32.5,32.5,0,1,1,32.5,32.5H152v26h6.5a58.5,58.5,0,0,0,0-117Z" transform="translate(-100 -144.93)"/><path class="cls-2" d="M386.1,144.93c-7.63,0-12.85,7.44-13.1,7.85-.26-.41-5.48-7.85-13.1-7.85-9.12,0-17.4,10.13-10.13,25.21,6,12.34,22.58,18.79,23.23,18.79s17.28-6.45,23.22-18.79C403.49,155.06,395.21,144.93,386.1,144.93Z" transform="translate(-100 -144.93)"/></svg>