<?xml version="1.0" encoding="UTF-8"?>
<svg id="Layer_1" data-name="Layer 1" xmlns="http://www.w3.org/2000/svg" viewBox="0 0 3236.48 398.82">
  <defs>
    <style>
      .cls-1 {
        fill: #f0597a;
      }

      .cls-2 {
        fill: #fff;
      }
    </style>
  </defs>
  <g>
    <rect x="16.14" y="37.77" width="3204.2" height="323.28" rx="68.03" ry="68.03"/>
    <path class="cls-1" d="M3152.31,47.27c32.27,0,58.53,26.26,58.53,58.53v187.22c0,32.27-26.26,58.53-58.53,58.53H84.17c-32.27,0-58.53-26.26-58.53-58.53V105.8c0-32.27,26.26-58.53,58.53-58.53h3068.14M3152.31,28.27H84.17C41.35,28.27,6.64,62.98,6.64,105.8v187.22c0,42.82,34.71,77.53,77.53,77.53h3068.14c42.82,0,77.53-34.71,77.53-77.53V105.8c0-42.82-34.71-77.53-77.53-77.53h0Z"/>
  </g>
  <g>
    <path class="cls-2" d="M636.17,117.08h-21.95v65.96h-16.02v-65.96h-21.83v-15.33h59.8v15.33Z"/>
    <path class="cls-2" d="M698.64,147.39v35.65h-14.98v-33.79c0-7.9-4.76-11.96-11.5-11.96-7.32,0-12.77,4.3-12.77,14.4v31.35h-14.98v-81.28h14.98v29.73c3.48-5.23,9.52-8.13,17.3-8.13,12.31,0,21.95,8.59,21.95,24.04Z"/>
    <path class="cls-2" d="M709.67,108.84c0-4.99,4.18-9.29,9.17-9.29s9.29,4.3,9.29,9.29-4.18,9.17-9.29,9.17-9.17-4.18-9.17-9.17ZM711.41,124.98h14.98v58.06h-14.98v-58.06Z"/>
    <path class="cls-2" d="M783.41,166.08c0,12.54-10.92,18.58-23.34,18.58-11.61,0-20.2-4.88-24.39-13.82l13.01-7.32c1.63,4.76,5.57,7.55,11.38,7.55,4.76,0,8.01-1.63,8.01-4.99,0-8.48-29.96-3.83-29.96-24.27,0-11.84,10.1-18.46,22.06-18.46,9.41,0,17.53,4.3,22.06,12.31l-12.77,6.97c-1.74-3.72-4.99-5.92-9.29-5.92-3.72,0-6.73,1.63-6.73,4.76,0,8.59,29.96,3.25,29.96,24.62Z"/>
    <path class="cls-2" d="M839.38,117.08v19.28h31.58v15.33h-31.58v31.35h-16.02v-81.28h48.54v15.33h-32.51Z"/>
    <path class="cls-2" d="M911.95,171.08c5.81,0,10.45-2.44,13.01-5.81l12.08,6.97c-5.46,7.9-14.17,12.42-25.31,12.42-19.51,0-31.82-13.35-31.82-30.66s12.42-30.66,30.66-30.66c17.19,0,29.38,13.59,29.38,30.66,0,2.21-.23,4.18-.58,6.15h-43.78c2.09,7.66,8.48,10.92,16.37,10.92ZM924.96,148.55c-1.86-8.36-8.13-11.73-14.4-11.73-8.01,0-13.47,4.3-15.21,11.73h29.61Z"/>
    <path class="cls-2" d="M1009.03,124.98v58.06h-14.98v-6.85c-4.18,5.23-10.45,8.48-18.93,8.48-15.44,0-28.22-13.35-28.22-30.66s12.77-30.66,28.22-30.66c8.48,0,14.75,3.25,18.93,8.48v-6.85h14.98ZM994.05,154.01c0-9.75-6.85-16.37-16.14-16.37s-16.02,6.62-16.02,16.37,6.85,16.37,16.02,16.37,16.14-6.62,16.14-16.37Z"/>
    <path class="cls-2" d="M1042.7,139.38v24.15c0,6.27,4.53,6.39,13.12,5.92v13.59c-21.02,2.32-28.1-3.83-28.1-19.51v-24.15h-10.1v-14.4h10.1v-11.73l14.98-4.53v16.26h13.12v14.4h-13.12Z"/>
    <path class="cls-2" d="M1120.62,124.98v58.06h-14.98v-6.5c-3.48,5.23-9.52,8.13-17.3,8.13-12.31,0-21.95-8.59-21.95-24.04v-35.65h14.98v33.79c0,7.9,4.76,11.96,11.5,11.96,7.32,0,12.77-4.3,12.77-14.4v-31.35h14.98Z"/>
    <path class="cls-2" d="M1166.95,123.82v16.72c-7.78-.93-17.65,2.55-17.65,14.75v27.75h-14.98v-58.06h14.98v9.99c3.02-7.9,10.33-11.15,17.65-11.15Z"/>
    <path class="cls-2" d="M1202.48,171.08c5.81,0,10.45-2.44,13.01-5.81l12.08,6.97c-5.46,7.9-14.17,12.42-25.31,12.42-19.51,0-31.82-13.35-31.82-30.66s12.42-30.66,30.66-30.66c17.19,0,29.38,13.59,29.38,30.66,0,2.21-.23,4.18-.58,6.15h-43.78c2.09,7.66,8.48,10.92,16.37,10.92ZM1215.49,148.55c-1.86-8.36-8.13-11.73-14.4-11.73-8.01,0-13.47,4.3-15.21,11.73h29.61Z"/>
    <path class="cls-2" d="M1268.21,108.84c0-4.99,4.18-9.29,9.17-9.29s9.29,4.3,9.29,9.29-4.18,9.17-9.29,9.17-9.17-4.18-9.17-9.17ZM1269.95,124.98h14.98v58.06h-14.98v-58.06Z"/>
    <path class="cls-2" d="M1341.94,166.08c0,12.54-10.92,18.58-23.34,18.58-11.61,0-20.2-4.88-24.39-13.82l13.01-7.32c1.63,4.76,5.57,7.55,11.38,7.55,4.76,0,8.01-1.63,8.01-4.99,0-8.48-29.96-3.83-29.96-24.27,0-11.84,10.1-18.46,22.06-18.46,9.41,0,17.53,4.3,22.06,12.31l-12.77,6.97c-1.74-3.72-4.99-5.92-9.29-5.92-3.72,0-6.73,1.63-6.73,4.76,0,8.59,29.96,3.25,29.96,24.62Z"/>
    <path class="cls-2" d="M1378.17,154.01c0-17.3,13.59-30.66,30.66-30.66s30.77,13.35,30.77,30.66-13.7,30.66-30.77,30.66-30.66-13.35-30.66-30.66ZM1424.62,154.01c0-9.41-6.85-16.02-15.79-16.02s-15.68,6.62-15.68,16.02,6.85,16.02,15.68,16.02,15.79-6.62,15.79-16.02Z"/>
    <path class="cls-2" d="M1504.4,147.39v35.65h-14.98v-33.79c0-7.9-4.76-11.96-11.5-11.96-7.32,0-12.77,4.3-12.77,14.4v31.35h-14.98v-58.06h14.98v6.5c3.48-5.23,9.52-8.13,17.3-8.13,12.31,0,21.95,8.59,21.95,24.04Z"/>
    <path class="cls-2" d="M1517.17,98.27h14.98v84.77h-14.98v-84.77Z"/>
    <path class="cls-2" d="M1599.73,124.98l-21.13,58.06c-6.04,16.72-15.91,24.04-30.66,23.22v-13.93c8.24.12,12.42-3.37,15.21-11.15l-23.8-56.2h16.37l15.1,39.02,12.89-39.02h16.02Z"/>
    <path class="cls-2" d="M1694.95,124.98v58.06h-14.98v-6.85c-4.18,5.23-10.45,8.48-18.93,8.48-15.44,0-28.22-13.35-28.22-30.66s12.77-30.66,28.22-30.66c8.48,0,14.75,3.25,18.93,8.48v-6.85h14.98ZM1679.97,154.01c0-9.75-6.85-16.37-16.14-16.37s-16.02,6.62-16.02,16.37,6.85,16.37,16.02,16.37,16.14-6.62,16.14-16.37Z"/>
    <path class="cls-2" d="M1763.23,124.98l-22.06,58.06h-17.07l-22.06-58.06h16.49l14.05,40.64,14.17-40.64h16.49Z"/>
    <path class="cls-2" d="M1827.21,124.98v58.06h-14.98v-6.85c-4.18,5.23-10.45,8.48-18.93,8.48-15.44,0-28.22-13.35-28.22-30.66s12.77-30.66,28.22-30.66c8.48,0,14.75,3.25,18.93,8.48v-6.85h14.98ZM1812.23,154.01c0-9.75-6.85-16.37-16.14-16.37s-16.02,6.62-16.02,16.37,6.85,16.37,16.02,16.37,16.14-6.62,16.14-16.37Z"/>
    <path class="cls-2" d="M1839.05,108.84c0-4.99,4.18-9.29,9.17-9.29s9.29,4.3,9.29,9.29-4.18,9.17-9.29,9.17-9.17-4.18-9.17-9.17ZM1840.79,124.98h14.98v58.06h-14.98v-58.06Z"/>
    <path class="cls-2" d="M1869.48,98.27h14.98v84.77h-14.98v-84.77Z"/>
    <path class="cls-2" d="M1957.26,124.98v58.06h-14.98v-6.85c-4.18,5.23-10.45,8.48-18.93,8.48-15.44,0-28.22-13.35-28.22-30.66s12.77-30.66,28.22-30.66c8.48,0,14.75,3.25,18.93,8.48v-6.85h14.98ZM1942.28,154.01c0-9.75-6.85-16.37-16.14-16.37s-16.02,6.62-16.02,16.37,6.85,16.37,16.02,16.37,16.14-6.62,16.14-16.37Z"/>
    <path class="cls-2" d="M2032.97,154.01c0,17.3-12.77,30.66-28.33,30.66-8.48,0-14.63-3.14-18.81-8.48v6.85h-14.98v-81.28h14.98v30.07c4.18-5.34,10.33-8.48,18.81-8.48,15.56,0,28.33,13.35,28.33,30.66ZM2017.99,154.01c0-9.75-6.85-16.37-16.14-16.37s-16.02,6.62-16.02,16.37,6.85,16.37,16.02,16.37,16.14-6.62,16.14-16.37Z"/>
    <path class="cls-2" d="M2043.54,98.27h14.98v84.77h-14.98v-84.77Z"/>
    <path class="cls-2" d="M2101.25,171.08c5.81,0,10.45-2.44,13.01-5.81l12.08,6.97c-5.46,7.9-14.17,12.42-25.31,12.42-19.51,0-31.82-13.35-31.82-30.66s12.42-30.66,30.66-30.66c17.19,0,29.38,13.59,29.38,30.66,0,2.21-.23,4.18-.58,6.15h-43.78c2.09,7.66,8.48,10.92,16.37,10.92ZM2114.26,148.55c-1.86-8.36-8.13-11.73-14.4-11.73-8.01,0-13.47,4.3-15.21,11.73h29.61Z"/>
    <path class="cls-2" d="M2166.97,108.84c0-4.99,4.18-9.29,9.17-9.29s9.29,4.3,9.29,9.29-4.18,9.17-9.29,9.17-9.17-4.18-9.17-9.17ZM2168.72,124.98h14.98v58.06h-14.98v-58.06Z"/>
    <path class="cls-2" d="M2251.63,147.39v35.65h-14.98v-33.79c0-7.9-4.76-11.96-11.5-11.96-7.32,0-12.77,4.3-12.77,14.4v31.35h-14.98v-58.06h14.98v6.5c3.48-5.23,9.52-8.13,17.3-8.13,12.31,0,21.95,8.59,21.95,24.04Z"/>
    <path class="cls-2" d="M2352.19,129.04c0,15.21-12.08,27.29-27.75,27.29h-14.28v26.71h-16.02v-81.28h30.31c15.68,0,27.75,12.08,27.75,27.29ZM2336.28,129.04c0-7.08-4.99-12.31-11.84-12.31h-14.28v24.62h14.28c6.85,0,11.84-5.34,11.84-12.31Z"/>
    <path class="cls-2" d="M2355.09,154.01c0-17.3,13.59-30.66,30.66-30.66s30.77,13.35,30.77,30.66-13.7,30.66-30.77,30.66-30.66-13.35-30.66-30.66ZM2401.54,154.01c0-9.41-6.85-16.02-15.79-16.02s-15.68,6.62-15.68,16.02,6.85,16.02,15.68,16.02,15.79-6.62,15.79-16.02Z"/>
    <path class="cls-2" d="M2425.34,108.84c0-4.99,4.18-9.29,9.17-9.29s9.29,4.3,9.29,9.29-4.18,9.17-9.29,9.17-9.17-4.18-9.17-9.17ZM2427.08,124.98h14.98v58.06h-14.98v-58.06Z"/>
    <path class="cls-2" d="M2509.65,124.98l-21.13,58.06c-6.04,16.72-15.91,24.04-30.66,23.22v-13.93c8.24.12,12.42-3.37,15.21-11.15l-23.8-56.2h16.37l15.09,39.02,12.89-39.02h16.02Z"/>
    <path class="cls-2" d="M2511.39,154.01c0-17.3,13.59-30.66,30.66-30.66s30.77,13.35,30.77,30.66-13.7,30.66-30.77,30.66-30.66-13.35-30.66-30.66ZM2557.84,154.01c0-9.41-6.85-16.02-15.79-16.02s-15.68,6.62-15.68,16.02,6.85,16.02,15.68,16.02,15.79-6.62,15.79-16.02Z"/>
    <path class="cls-2" d="M2669.54,147.27v35.76h-14.98v-34.72c0-6.85-3.48-11.03-9.75-11.03-6.62,0-10.8,4.41-10.8,13.12v32.63h-14.98v-34.72c0-6.85-3.48-11.03-9.75-11.03s-10.92,4.41-10.92,13.12v32.63h-14.98v-58.06h14.98v6.15c3.25-4.88,8.71-7.78,16.14-7.78s12.54,3.02,15.79,8.36c3.6-5.23,9.41-8.36,17.3-8.36,13.24,0,21.95,9.41,21.95,23.92Z"/>
    <path class="cls-2" d="M2680.58,108.84c0-4.99,4.18-9.29,9.17-9.29s9.29,4.3,9.29,9.29-4.18,9.17-9.29,9.17-9.17-4.18-9.17-9.17ZM2682.32,124.98h14.98v58.06h-14.98v-58.06Z"/>
    <path class="cls-2" d="M2798.79,129.04c0,15.21-12.08,27.29-27.75,27.29h-14.28v26.71h-16.02v-81.28h30.31c15.68,0,27.75,12.08,27.75,27.29ZM2782.88,129.04c0-7.08-4.99-12.31-11.84-12.31h-14.28v24.62h14.28c6.85,0,11.84-5.34,11.84-12.31Z"/>
    <path class="cls-2" d="M2839.89,123.82v16.72c-7.78-.93-17.65,2.55-17.65,14.75v27.75h-14.98v-58.06h14.98v9.99c3.02-7.9,10.33-11.15,17.65-11.15Z"/>
    <path class="cls-2" d="M2843.38,154.01c0-17.3,13.59-30.66,30.66-30.66s30.77,13.35,30.77,30.66-13.7,30.66-30.77,30.66-30.66-13.35-30.66-30.66ZM2889.82,154.01c0-9.41-6.85-16.02-15.79-16.02s-15.68,6.62-15.68,16.02,6.85,16.02,15.68,16.02,15.79-6.62,15.79-16.02Z"/>
  </g>
  <g>
    <path class="cls-2" d="M662.81,291.78c-5.42,0-9.74-1.27-12.95-3.8-3.22-2.54-4.93-6.01-5.15-10.41h7.41c.22,2.63,1.35,4.58,3.4,5.84,2.05,1.26,4.47,1.89,7.25,1.89,3.06,0,5.6-.71,7.61-2.14,2.01-1.42,3.01-3.3,3.01-5.63,0-2.09-.88-3.65-2.64-4.68-1.76-1.02-3.93-1.88-6.52-2.57l-5.63-1.55c-3.95-1.06-7.03-2.62-9.24-4.69-2.21-2.07-3.32-4.76-3.32-8.06,0-2.78.75-5.22,2.25-7.3,1.5-2.08,3.54-3.7,6.12-4.86,2.58-1.15,5.49-1.73,8.73-1.73s6.21.58,8.73,1.73c2.51,1.15,4.49,2.74,5.93,4.76,1.44,2.02,2.19,4.3,2.25,6.85h-7.19c-.24-2.2-1.26-3.91-3.06-5.12-1.8-1.21-4.07-1.81-6.82-1.81-2.91,0-5.23.66-6.96,1.99-1.73,1.33-2.59,3.02-2.59,5.07,0,1.53.46,2.77,1.39,3.71.93.94,2.07,1.68,3.42,2.23,1.35.55,2.64.99,3.87,1.31l4.69,1.23c1.53.39,3.11.91,4.74,1.57,1.63.66,3.14,1.51,4.52,2.56,1.38,1.05,2.5,2.34,3.35,3.89.85,1.54,1.28,3.41,1.28,5.59,0,2.72-.7,5.15-2.1,7.29-1.4,2.14-3.44,3.82-6.1,5.03-2.67,1.22-5.89,1.83-9.67,1.83Z"/>
    <path class="cls-2" d="M701.25,291.43c-3.69,0-6.67-1.16-8.94-3.48-2.27-2.32-3.4-5.71-3.4-10.18v-22.99h7.12v22.11c0,2.61.69,4.65,2.06,6.12,1.37,1.47,3.23,2.2,5.59,2.2s4.42-.78,6.02-2.35c1.6-1.56,2.4-3.78,2.4-6.65v-21.43h7.16v36.2h-6.83l-.03-7.03c-1.14,2.63-2.66,4.54-4.55,5.71-1.89,1.18-4.08,1.76-6.59,1.76Z"/>
    <path class="cls-2" d="M746.77,291.69c-2.2,0-3.99-.37-5.38-1.12-1.38-.74-2.47-1.61-3.25-2.61-.79-.99-1.4-1.88-1.83-2.66h-.58v5.67h-6.93v-48.24h7.12v17.94h.39c.41-.73,1-1.6,1.76-2.61.77-1,1.84-1.88,3.22-2.62,1.38-.74,3.21-1.12,5.47-1.12,2.89,0,5.48.73,7.75,2.2,2.28,1.47,4.07,3.59,5.39,6.38,1.32,2.78,1.98,6.14,1.98,10.07s-.65,7.23-1.94,10.04c-1.3,2.81-3.08,4.95-5.36,6.44-2.28,1.49-4.88,2.23-7.82,2.23ZM745.19,285.63c2.07,0,3.8-.56,5.2-1.68,1.39-1.12,2.44-2.64,3.16-4.57.71-1.92,1.07-4.08,1.07-6.48s-.35-4.51-1.05-6.39c-.7-1.89-1.75-3.38-3.14-4.48s-3.14-1.65-5.23-1.65c-3.07,0-5.4,1.15-6.99,3.45-1.6,2.3-2.4,5.33-2.4,9.08s.81,6.84,2.43,9.2c1.62,2.35,3.94,3.53,6.96,3.53Z"/>
    <path class="cls-2" d="M782.78,291.72c-3.93,0-7.18-.85-9.76-2.54-2.58-1.69-4.19-4.15-4.84-7.37l6.7-1.39c.97,3.69,3.63,5.54,7.97,5.54,2.31,0,4.14-.48,5.49-1.44,1.35-.96,2.02-2.11,2.02-3.45,0-2.29-1.69-3.81-5.08-4.57l-6.09-1.39c-6.65-1.49-9.97-4.82-9.97-10.01,0-2.16.6-4.05,1.8-5.67,1.2-1.62,2.85-2.88,4.95-3.77,2.1-.9,4.53-1.34,7.27-1.34,3.91,0,6.97.84,9.2,2.51,2.22,1.67,3.72,3.85,4.5,6.52l-6.38,1.39c-.45-1.27-1.24-2.39-2.36-3.35-1.12-.96-2.75-1.44-4.89-1.44-1.96,0-3.6.44-4.92,1.33-1.32.89-1.98,2.01-1.98,3.37,0,1.21.44,2.19,1.31,2.93.87.74,2.3,1.34,4.29,1.8l5.83,1.3c6.58,1.49,9.88,4.75,9.88,9.78,0,2.2-.63,4.15-1.89,5.84-1.26,1.69-3.02,3.02-5.26,3.98-2.25.96-4.84,1.44-7.77,1.44Z"/>
    <path class="cls-2" d="M820.72,291.72c-3.41,0-6.38-.78-8.9-2.33-2.53-1.55-4.49-3.73-5.89-6.52-1.4-2.8-2.1-6.06-2.1-9.79s.7-7.04,2.1-9.86c1.4-2.82,3.37-5,5.89-6.56,2.53-1.55,5.49-2.33,8.9-2.33,3.76,0,7,.94,9.73,2.83,2.73,1.89,4.54,4.51,5.42,7.85l-6.77,1.62c-.5-1.88-1.46-3.39-2.9-4.55-1.44-1.15-3.25-1.73-5.46-1.73s-3.99.57-5.42,1.72c-1.44,1.14-2.5,2.68-3.21,4.61-.7,1.93-1.05,4.06-1.05,6.39s.35,4.42,1.05,6.33c.7,1.91,1.77,3.44,3.21,4.58,1.44,1.14,3.24,1.72,5.42,1.72s4.1-.6,5.57-1.8,2.44-2.78,2.91-4.74l6.73,1.62c-.89,3.41-2.7,6.09-5.44,8.03-2.74,1.94-6.01,2.91-9.81,2.91Z"/>
    <path class="cls-2" d="M843.78,290.98v-36.2h6.9v5.83h.39c.65-1.96,1.81-3.51,3.48-4.65,1.67-1.13,3.57-1.7,5.68-1.7.45,0,.98.02,1.57.06.59.04,1.07.09,1.44.13v6.8c-.26-.06-.76-.15-1.49-.24-.73-.1-1.48-.15-2.23-.15-2.48,0-4.54.76-6.17,2.28-1.63,1.52-2.44,3.47-2.44,5.84v21.99h-7.12Z"/>
    <path class="cls-2" d="M873.53,249.24c-1.23,0-2.28-.41-3.16-1.23-.87-.82-1.31-1.81-1.31-2.98s.44-2.19,1.31-3.01c.87-.82,1.93-1.23,3.16-1.23s2.29.41,3.17,1.23c.88.82,1.33,1.82,1.33,3.01s-.44,2.16-1.33,2.98c-.89.82-1.94,1.23-3.17,1.23ZM869.94,290.98v-36.2h7.12v36.2h-7.12Z"/>
    <path class="cls-2" d="M904.62,291.69c-2.2,0-3.99-.37-5.38-1.12-1.38-.74-2.47-1.61-3.25-2.61-.79-.99-1.4-1.88-1.83-2.66h-.58v5.67h-6.93v-48.24h7.12v17.94h.39c.41-.73,1-1.6,1.76-2.61.77-1,1.84-1.88,3.22-2.62,1.38-.74,3.21-1.12,5.47-1.12,2.89,0,5.48.73,7.75,2.2,2.28,1.47,4.07,3.59,5.39,6.38,1.32,2.78,1.98,6.14,1.98,10.07s-.65,7.23-1.94,10.04c-1.3,2.81-3.08,4.95-5.36,6.44-2.28,1.49-4.88,2.23-7.82,2.23ZM903.03,285.63c2.07,0,3.8-.56,5.2-1.68,1.39-1.12,2.44-2.64,3.16-4.57.71-1.92,1.07-4.08,1.07-6.48s-.35-4.51-1.05-6.39c-.7-1.89-1.75-3.38-3.14-4.48s-3.14-1.65-5.23-1.65c-3.07,0-5.4,1.15-6.99,3.45-1.6,2.3-2.4,5.33-2.4,9.08s.81,6.84,2.43,9.2c1.62,2.35,3.94,3.53,6.96,3.53Z"/>
    <path class="cls-2" d="M943.25,291.72c-3.56,0-6.64-.77-9.23-2.3-2.59-1.53-4.58-3.69-5.97-6.48-1.39-2.78-2.09-6.05-2.09-9.81s.69-6.98,2.06-9.81c1.37-2.83,3.31-5.03,5.81-6.62,2.5-1.59,5.44-2.38,8.81-2.38,2.74,0,5.35.61,7.82,1.83,2.47,1.22,4.48,3.16,6.02,5.83,1.54,2.67,2.31,6.18,2.31,10.54v2.53h-25.68c.13,3.5,1.12,6.17,2.98,8.01,1.86,1.85,4.26,2.77,7.22,2.77,1.99,0,3.7-.43,5.13-1.3,1.44-.86,2.47-2.14,3.09-3.82l6.7,1.59c-.86,2.83-2.61,5.11-5.25,6.83-2.63,1.73-5.88,2.59-9.75,2.59ZM933.14,269.73h18.59c-.26-2.85-1.15-5.15-2.67-6.9-1.52-1.75-3.65-2.62-6.39-2.62s-5.1.93-6.75,2.8c-1.65,1.87-2.57,4.11-2.77,6.72Z"/>
    <path class="cls-2" d="M999.49,291.72c-3.39,0-6.35-.78-8.89-2.33-2.54-1.55-4.51-3.73-5.91-6.52-1.4-2.8-2.1-6.06-2.1-9.79s.7-7.04,2.1-9.86c1.4-2.82,3.37-5,5.91-6.56,2.54-1.55,5.5-2.33,8.89-2.33s6.38.78,8.92,2.33c2.54,1.55,4.51,3.74,5.91,6.56,1.4,2.82,2.1,6.1,2.1,9.86s-.7,7-2.1,9.79c-1.4,2.8-3.37,4.97-5.91,6.52-2.54,1.55-5.51,2.33-8.92,2.33ZM999.49,285.7c2.2,0,4.02-.58,5.46-1.73,1.44-1.15,2.5-2.69,3.21-4.6.7-1.91,1.05-4.01,1.05-6.3s-.35-4.43-1.05-6.36c-.7-1.93-1.77-3.48-3.21-4.63-1.44-1.15-3.25-1.73-5.46-1.73s-3.98.58-5.41,1.73c-1.42,1.16-2.49,2.7-3.19,4.63-.7,1.93-1.05,4.05-1.05,6.36s.35,4.39,1.05,6.3c.7,1.91,1.76,3.44,3.19,4.6,1.42,1.16,3.23,1.73,5.41,1.73Z"/>
    <path class="cls-2" d="M1031.44,269.54v21.43h-7.12v-36.2h6.8l.03,6.96c1.12-2.55,2.63-4.42,4.52-5.62,1.89-1.2,4.11-1.8,6.65-1.8,3.69,0,6.66,1.16,8.92,3.48,2.26,2.32,3.38,5.71,3.38,10.18v22.99h-7.12v-22.11c0-2.61-.68-4.65-2.04-6.12-1.36-1.47-3.23-2.2-5.6-2.2s-4.43.78-6.02,2.35c-1.6,1.57-2.4,3.78-2.4,6.65Z"/>
    <path class="cls-2" d="M1082.44,290.98v-48.24h17.29c3.71,0,6.81.69,9.29,2.06,2.48,1.37,4.34,3.24,5.57,5.6s1.85,5.03,1.85,8.01-.62,5.65-1.86,8.01c-1.24,2.36-3.1,4.23-5.59,5.6-2.48,1.37-5.59,2.06-9.33,2.06h-9.84v16.9h-7.38ZM1089.82,267.82h9.13c3.54,0,6.09-.89,7.66-2.67,1.56-1.78,2.35-4.03,2.35-6.75s-.78-4.96-2.35-6.72c-1.57-1.76-4.14-2.64-7.72-2.64h-9.07v18.78Z"/>
    <path class="cls-2" d="M1134.28,291.78c-2.31,0-4.39-.43-6.23-1.28-1.85-.85-3.31-2.1-4.39-3.74-1.08-1.64-1.62-3.65-1.62-6.02,0-2.05.4-3.74,1.2-5.07.8-1.33,1.87-2.37,3.21-3.14,1.34-.77,2.83-1.34,4.48-1.73,1.65-.39,3.33-.68,5.04-.87,3.19-.37,5.52-.69,6.96-.96,1.45-.27,2.17-1.04,2.17-2.32v-.19c0-2.01-.59-3.57-1.76-4.68-1.18-1.11-2.9-1.67-5.16-1.67s-4.24.52-5.6,1.55-2.29,2.17-2.78,3.4l-6.7-1.75c.82-2.16,2-3.9,3.53-5.21,1.53-1.32,3.29-2.28,5.26-2.88,1.98-.6,4.04-.91,6.2-.91,1.45,0,2.99.17,4.63.52,1.64.35,3.18.97,4.63,1.86,1.45.9,2.62,2.18,3.53,3.84.91,1.66,1.36,3.8,1.36,6.41v24.02h-6.9v-4.95h-.36c-.71,1.42-1.94,2.74-3.67,3.95-1.74,1.21-4.07,1.81-7.01,1.81ZM1135.87,286.05c1.92,0,3.57-.38,4.95-1.15,1.38-.77,2.44-1.76,3.19-2.99.74-1.23,1.12-2.56,1.12-3.98v-4.63c-.35.35-1.08.64-2.22.89-1.13.25-2.33.46-3.58.63-1.25.17-2.25.3-2.98.39-2.01.28-3.73.83-5.16,1.64-1.44.81-2.15,2.14-2.15,4,0,1.73.64,3.03,1.93,3.9,1.28.87,2.92,1.31,4.91,1.31Z"/>
    <path class="cls-2" d="M1177.28,254.78v5.8h-7.22v20.63c0,1.45.31,2.51.92,3.19.62.68,1.62,1.02,3.03,1.02.39,0,.88-.04,1.47-.13.59-.09,1.11-.17,1.54-.26l1.26,5.7c-.76.26-1.57.45-2.44.57-.87.12-1.72.18-2.54.18-3.28,0-5.83-.85-7.64-2.54-1.81-1.69-2.72-4.07-2.72-7.14v-21.21h-5.28v-5.8h5.28v-8.61h7.12v8.61h7.22Z"/>
    <path class="cls-2" d="M1184.37,290.98v-36.2h6.9v5.83h.39c.65-1.96,1.81-3.51,3.48-4.65,1.67-1.13,3.57-1.7,5.68-1.7.45,0,.98.02,1.57.06.59.04,1.07.09,1.44.13v6.8c-.26-.06-.76-.15-1.49-.24-.73-.1-1.48-.15-2.23-.15-2.48,0-4.54.76-6.17,2.28-1.63,1.52-2.44,3.47-2.44,5.84v21.99h-7.12Z"/>
    <path class="cls-2" d="M1224.36,291.72c-3.56,0-6.64-.77-9.23-2.3-2.59-1.53-4.58-3.69-5.97-6.48-1.39-2.78-2.09-6.05-2.09-9.81s.69-6.98,2.06-9.81c1.37-2.83,3.31-5.03,5.81-6.62,2.5-1.59,5.44-2.38,8.81-2.38,2.74,0,5.35.61,7.82,1.83,2.47,1.22,4.48,3.16,6.02,5.83,1.54,2.67,2.31,6.18,2.31,10.54v2.53h-25.68c.13,3.5,1.12,6.17,2.98,8.01,1.86,1.85,4.26,2.77,7.22,2.77,1.99,0,3.7-.43,5.13-1.3,1.44-.86,2.47-2.14,3.09-3.82l6.7,1.59c-.86,2.83-2.61,5.11-5.25,6.83-2.63,1.73-5.88,2.59-9.75,2.59ZM1214.25,269.73h18.59c-.26-2.85-1.15-5.15-2.67-6.9-1.52-1.75-3.65-2.62-6.39-2.62s-5.1.93-6.75,2.8c-1.65,1.87-2.57,4.11-2.77,6.72Z"/>
    <path class="cls-2" d="M1262.92,291.72c-3.39,0-6.35-.78-8.89-2.33-2.54-1.55-4.51-3.73-5.91-6.52-1.4-2.8-2.1-6.06-2.1-9.79s.7-7.04,2.1-9.86c1.4-2.82,3.37-5,5.91-6.56,2.54-1.55,5.5-2.33,8.89-2.33s6.38.78,8.92,2.33c2.54,1.55,4.51,3.74,5.91,6.56,1.4,2.82,2.1,6.1,2.1,9.86s-.7,7-2.1,9.79c-1.4,2.8-3.37,4.97-5.91,6.52-2.54,1.55-5.51,2.33-8.92,2.33ZM1262.92,285.7c2.2,0,4.02-.58,5.46-1.73,1.44-1.15,2.5-2.69,3.21-4.6.7-1.91,1.05-4.01,1.05-6.3s-.35-4.43-1.05-6.36c-.7-1.93-1.77-3.48-3.21-4.63-1.44-1.15-3.25-1.73-5.46-1.73s-3.98.58-5.41,1.73c-1.42,1.16-2.49,2.7-3.19,4.63-.7,1.93-1.05,4.05-1.05,6.36s.35,4.39,1.05,6.3c.7,1.91,1.76,3.44,3.19,4.6,1.42,1.16,3.23,1.73,5.41,1.73Z"/>
    <path class="cls-2" d="M1294.88,269.54v21.43h-7.12v-36.2h6.8l.03,6.96c1.12-2.55,2.63-4.42,4.52-5.62,1.89-1.2,4.11-1.8,6.65-1.8,3.69,0,6.66,1.16,8.92,3.48,2.26,2.32,3.38,5.71,3.38,10.18v22.99h-7.12v-22.11c0-2.61-.68-4.65-2.04-6.12-1.36-1.47-3.23-2.2-5.6-2.2s-4.43.78-6.02,2.35c-1.6,1.57-2.4,3.78-2.4,6.65Z"/>
    <path class="cls-2" d="M1347.07,268.28c0-3.52.36-7.21,1.07-11.07.71-3.86,1.7-7.58,2.96-11.14,1.26-3.56,2.7-6.67,4.32-9.33h6.77c-1.64,3.39-3.05,6.91-4.23,10.56-1.18,3.65-2.08,7.26-2.7,10.85-.63,3.58-.94,6.96-.94,10.13,0,4.27.63,8.66,1.88,13.16,1.25,4.5,3.25,9.68,5.99,15.53h-6.77c-2.76-4.64-4.85-9.39-6.25-14.25-1.4-4.86-2.1-9.67-2.1-14.44Z"/>
    <path class="cls-2" d="M1384.57,297.84v-6.12c-4.86-.32-8.71-1.73-11.56-4.21-2.85-2.48-4.38-5.8-4.6-9.94h7.41c.19,2.33,1.11,4.12,2.75,5.37,1.64,1.25,3.64,2.01,5.99,2.27v-15.83l-2.27-.65c-3.95-1.06-7.03-2.62-9.24-4.69-2.21-2.07-3.32-4.76-3.32-8.06,0-2.57.64-4.83,1.93-6.8,1.28-1.96,3.04-3.55,5.26-4.76,2.22-1.21,4.77-1.95,7.64-2.23v-6.31h3.89v6.28c3,.19,5.63.89,7.9,2.07,2.27,1.19,4.05,2.75,5.34,4.68,1.3,1.93,1.98,4.11,2.04,6.52h-7.19c-.22-1.96-1.05-3.53-2.51-4.71-1.46-1.18-3.32-1.89-5.59-2.15v14.93l2.04.55c1.53.39,3.11.91,4.74,1.57,1.63.66,3.14,1.51,4.52,2.56,1.38,1.05,2.5,2.34,3.35,3.89.85,1.54,1.28,3.41,1.28,5.59,0,3.86-1.39,7.1-4.16,9.7-2.77,2.6-6.7,4.06-11.77,4.39v6.12h-3.89ZM1384.57,262.45v-13.83c-2.31.32-4.13,1.11-5.46,2.36-1.33,1.25-1.99,2.77-1.99,4.57,0,1.36.38,2.49,1.13,3.38.76.9,1.7,1.62,2.85,2.17,1.14.55,2.3,1,3.46,1.34ZM1388.45,285.21c2.55-.3,4.62-1.14,6.23-2.51,1.61-1.37,2.41-3.09,2.41-5.16s-.83-3.55-2.48-4.57c-1.65-1.01-3.71-1.87-6.17-2.56v14.8Z"/>
    <path class="cls-2" d="M1429.99,242.73v48.24h-7.32v-41.54h-.32l-11.46,8.35v-7.41l10.56-7.64h8.55Z"/>
    <path class="cls-2" d="M1456.74,291.62c-5.61,0-9.97-2.16-13.08-6.48-3.11-4.32-4.66-10.4-4.66-18.26s1.56-13.9,4.68-18.26c3.12-4.36,7.47-6.54,13.06-6.54s9.95,2.18,13.06,6.54c3.12,4.36,4.68,10.45,4.68,18.26s-1.55,13.92-4.65,18.25c-3.1,4.33-7.46,6.49-13.1,6.49ZM1456.74,285.31c3.35,0,5.92-1.61,7.72-4.82,1.8-3.22,2.7-7.75,2.7-13.6s-.9-10.43-2.7-13.66c-1.8-3.24-4.38-4.86-7.72-4.86s-5.93,1.62-7.74,4.87c-1.81,3.25-2.72,7.8-2.72,13.65s.91,10.38,2.72,13.6c1.81,3.22,4.39,4.82,7.74,4.82Z"/>
    <path class="cls-2" d="M1520.4,291.72c-3.89,0-7.27-.74-10.15-2.22s-5.12-3.52-6.7-6.14c-1.59-2.61-2.38-5.6-2.38-8.97v-31.67h7.38v31.05c0,3.26,1.06,5.95,3.19,8.06,2.13,2.12,5.01,3.17,8.66,3.17s6.49-1.06,8.6-3.17c2.1-2.12,3.16-4.8,3.16-8.06v-31.05h7.41v31.67c0,3.37-.8,6.36-2.4,8.97-1.6,2.61-3.83,4.66-6.7,6.14-2.87,1.48-6.23,2.22-10.07,2.22Z"/>
    <path class="cls-2" d="M1566.44,291.78c-5.42,0-9.74-1.27-12.95-3.8-3.22-2.54-4.93-6.01-5.15-10.41h7.41c.22,2.63,1.35,4.58,3.4,5.84,2.05,1.26,4.47,1.89,7.25,1.89,3.06,0,5.6-.71,7.61-2.14,2.01-1.42,3.01-3.3,3.01-5.63,0-2.09-.88-3.65-2.64-4.68-1.76-1.02-3.93-1.88-6.52-2.57l-5.63-1.55c-3.95-1.06-7.03-2.62-9.24-4.69-2.21-2.07-3.32-4.76-3.32-8.06,0-2.78.75-5.22,2.25-7.3,1.5-2.08,3.54-3.7,6.12-4.86,2.58-1.15,5.49-1.73,8.73-1.73s6.21.58,8.73,1.73c2.51,1.15,4.49,2.74,5.93,4.76,1.44,2.02,2.19,4.3,2.25,6.85h-7.19c-.24-2.2-1.26-3.91-3.06-5.12-1.8-1.21-4.07-1.81-6.82-1.81-2.91,0-5.23.66-6.96,1.99-1.73,1.33-2.59,3.02-2.59,5.07,0,1.53.46,2.77,1.39,3.71.93.94,2.07,1.68,3.42,2.23,1.35.55,2.64.99,3.87,1.31l4.69,1.23c1.53.39,3.11.91,4.74,1.57,1.63.66,3.14,1.51,4.52,2.56,1.38,1.05,2.5,2.34,3.35,3.89.85,1.54,1.28,3.41,1.28,5.59,0,2.72-.7,5.15-2.1,7.29-1.4,2.14-3.44,3.82-6.1,5.03-2.67,1.22-5.89,1.83-9.67,1.83Z"/>
    <path class="cls-2" d="M1608.79,290.98h-15.7v-48.24h16.16c4.75,0,8.82.97,12.21,2.9,3.39,1.93,5.99,4.69,7.8,8.27,1.81,3.58,2.72,7.88,2.72,12.89s-.91,9.35-2.74,12.95c-1.82,3.61-4.47,6.38-7.93,8.32-3.46,1.94-7.64,2.91-12.52,2.91ZM1600.47,284.5h7.9c5.46,0,9.55-1.53,12.27-4.58,2.72-3.05,4.08-7.43,4.08-13.13s-1.34-10.03-4.03-13.05c-2.69-3.02-6.67-4.53-11.93-4.53h-8.29v35.29Z"/>
    <path class="cls-2" d="M1673.29,291.72c-3.39,0-6.35-.78-8.89-2.33-2.54-1.55-4.51-3.73-5.91-6.52-1.4-2.8-2.1-6.06-2.1-9.79s.7-7.04,2.1-9.86c1.4-2.82,3.37-5,5.91-6.56,2.54-1.55,5.5-2.33,8.89-2.33s6.38.78,8.92,2.33c2.54,1.55,4.51,3.74,5.91,6.56s2.1,6.1,2.1,9.86-.7,7-2.1,9.79c-1.4,2.8-3.37,4.97-5.91,6.52-2.54,1.55-5.51,2.33-8.92,2.33ZM1673.29,285.7c2.2,0,4.02-.58,5.46-1.73,1.43-1.15,2.5-2.69,3.21-4.6.7-1.91,1.05-4.01,1.05-6.3s-.35-4.43-1.05-6.36c-.7-1.93-1.77-3.48-3.21-4.63-1.44-1.15-3.25-1.73-5.46-1.73s-3.98.58-5.41,1.73c-1.42,1.16-2.49,2.7-3.19,4.63-.7,1.93-1.05,4.05-1.05,6.36s.35,4.39,1.05,6.3c.7,1.91,1.76,3.44,3.19,4.6,1.42,1.16,3.23,1.73,5.41,1.73Z"/>
    <path class="cls-2" d="M1698.12,290.98v-36.2h6.9v5.83h.39c.65-1.96,1.81-3.51,3.48-4.65s3.57-1.7,5.68-1.7c.45,0,.98.02,1.57.06.59.04,1.07.09,1.44.13v6.8c-.26-.06-.76-.15-1.49-.24-.73-.1-1.48-.15-2.23-.15-2.48,0-4.54.76-6.17,2.28-1.63,1.52-2.44,3.47-2.44,5.84v21.99h-7.12Z"/>
    <path class="cls-2" d="M1748.57,269.54v21.43h-7.12v-48.24h7.06v18.55c1.14-2.4,2.63-4.16,4.47-5.28,1.83-1.12,3.99-1.68,6.48-1.68,3.69,0,6.67,1.16,8.94,3.48,2.27,2.32,3.4,5.71,3.4,10.18v22.99h-7.16v-22.11c0-2.61-.68-4.65-2.04-6.12-1.36-1.47-3.23-2.2-5.6-2.2s-4.43.78-6.02,2.35c-1.6,1.57-2.4,3.78-2.4,6.65Z"/>
    <path class="cls-2" d="M1784.93,249.24c-1.23,0-2.28-.41-3.16-1.23-.88-.82-1.31-1.81-1.31-2.98s.44-2.19,1.31-3.01c.87-.82,1.93-1.23,3.16-1.23s2.29.41,3.17,1.23c.88.82,1.33,1.82,1.33,3.01s-.44,2.16-1.33,2.98c-.89.82-1.94,1.23-3.17,1.23ZM1781.33,290.98v-36.2h7.12v36.2h-7.12Z"/>
    <path class="cls-2" d="M1813.2,305.29c-4.19,0-7.54-.77-10.07-2.3-2.53-1.53-4.3-3.39-5.31-5.57l5.96-2.82c.43.69,1.01,1.42,1.73,2.19.72.77,1.69,1.42,2.91,1.96,1.22.54,2.8.81,4.74.81,2.74,0,4.97-.65,6.7-1.96,1.73-1.31,2.59-3.35,2.59-6.14v-7.06h-.61c-.43.8-1.03,1.66-1.8,2.59-.77.93-1.83,1.73-3.21,2.41-1.37.68-3.16,1.02-5.36,1.02-2.85,0-5.41-.67-7.69-2.01-2.28-1.34-4.08-3.32-5.42-5.94-1.34-2.62-2.01-5.87-2.01-9.73s.66-7.14,1.99-9.89,3.13-4.86,5.42-6.33c2.29-1.47,4.89-2.2,7.8-2.2,2.22,0,4.03.37,5.42,1.12,1.39.74,2.48,1.61,3.27,2.61.79.99,1.39,1.87,1.8,2.62h.52v-5.89h6.96v36.72c0,3.17-.72,5.77-2.17,7.8-1.45,2.03-3.4,3.53-5.86,4.52-2.46.98-5.23,1.47-8.32,1.47ZM1813.13,284.5c3.02,0,5.34-1.05,6.95-3.14,1.61-2.09,2.41-5,2.41-8.71s-.79-6.58-2.38-8.86c-1.59-2.28-3.91-3.42-6.98-3.42-2.09,0-3.85.55-5.26,1.64-1.41,1.09-2.47,2.56-3.17,4.4-.7,1.85-1.05,3.92-1.05,6.23,0,3.54.8,6.4,2.41,8.58,1.61,2.18,3.97,3.27,7.08,3.27Z"/>
    <path class="cls-2" d="M1846.25,269.54v21.43h-7.12v-48.24h7.06v18.55c1.14-2.4,2.63-4.16,4.47-5.28,1.83-1.12,3.99-1.68,6.48-1.68,3.69,0,6.67,1.16,8.94,3.48,2.27,2.32,3.4,5.71,3.4,10.18v22.99h-7.16v-22.11c0-2.61-.68-4.65-2.04-6.12-1.36-1.47-3.23-2.2-5.6-2.2s-4.43.78-6.02,2.35c-1.6,1.57-2.4,3.78-2.4,6.65Z"/>
    <path class="cls-2" d="M1894.63,291.72c-3.56,0-6.64-.77-9.23-2.3-2.59-1.53-4.58-3.69-5.97-6.48-1.39-2.78-2.09-6.05-2.09-9.81s.68-6.98,2.06-9.81c1.37-2.83,3.31-5.03,5.81-6.62,2.5-1.59,5.44-2.38,8.81-2.38,2.74,0,5.35.61,7.82,1.83,2.47,1.22,4.48,3.16,6.02,5.83,1.54,2.67,2.32,6.18,2.32,10.54v2.53h-25.68c.13,3.5,1.12,6.17,2.98,8.01,1.86,1.85,4.26,2.77,7.22,2.77,1.99,0,3.7-.43,5.13-1.3,1.43-.86,2.47-2.14,3.09-3.82l6.7,1.59c-.86,2.83-2.61,5.11-5.25,6.83-2.63,1.73-5.88,2.59-9.75,2.59ZM1884.53,269.73h18.58c-.26-2.85-1.15-5.15-2.67-6.9-1.52-1.75-3.65-2.62-6.4-2.62s-5.1.93-6.75,2.8c-1.65,1.87-2.57,4.11-2.77,6.72Z"/>
    <path class="cls-2" d="M1917.97,290.98v-36.2h6.9v5.83h.39c.65-1.96,1.81-3.51,3.48-4.65s3.57-1.7,5.68-1.7c.45,0,.98.02,1.57.06.59.04,1.07.09,1.44.13v6.8c-.26-.06-.76-.15-1.49-.24-.73-.1-1.48-.15-2.23-.15-2.48,0-4.54.76-6.17,2.28-1.63,1.52-2.45,3.47-2.45,5.84v21.99h-7.12Z"/>
    <path class="cls-2" d="M1941.61,300.01c1.88-3.99,3.39-7.64,4.55-10.93,1.15-3.29,2-6.38,2.54-9.26.54-2.88.81-5.71.81-8.5,0-3.17-.32-6.55-.96-10.13-.64-3.58-1.54-7.2-2.72-10.85-1.18-3.65-2.58-7.17-4.23-10.56h6.8c1.62,2.63,3.05,5.74,4.31,9.31,1.25,3.57,2.24,7.29,2.96,11.15.72,3.86,1.08,7.56,1.08,11.07,0,4.84-.72,9.68-2.15,14.54-1.44,4.86-3.5,9.57-6.2,14.15h-6.8Z"/>
    <path class="cls-2" d="M1989.33,249.24c-1.23,0-2.28-.41-3.16-1.23-.88-.82-1.31-1.81-1.31-2.98s.44-2.19,1.31-3.01c.87-.82,1.93-1.23,3.16-1.23s2.29.41,3.17,1.23c.88.82,1.33,1.82,1.33,3.01s-.44,2.16-1.33,2.98c-.89.82-1.94,1.23-3.17,1.23ZM1985.74,290.98v-36.2h7.12v36.2h-7.12Z"/>
    <path class="cls-2" d="M2009.57,269.54v21.43h-7.12v-36.2h6.8l.03,6.96c1.12-2.55,2.63-4.42,4.52-5.62s4.11-1.8,6.65-1.8c3.69,0,6.66,1.16,8.92,3.48,2.26,2.32,3.38,5.71,3.38,10.18v22.99h-7.12v-22.11c0-2.61-.68-4.65-2.04-6.12-1.36-1.47-3.23-2.2-5.6-2.2s-4.43.78-6.02,2.35c-1.6,1.57-2.4,3.78-2.4,6.65Z"/>
    <path class="cls-2" d="M2075.24,291.72c-3.39,0-6.35-.78-8.89-2.33-2.54-1.55-4.51-3.73-5.91-6.52-1.4-2.8-2.1-6.06-2.1-9.79s.7-7.04,2.1-9.86,3.37-5,5.91-6.56c2.54-1.55,5.5-2.33,8.89-2.33s6.38.78,8.92,2.33c2.54,1.55,4.51,3.74,5.91,6.56,1.4,2.82,2.1,6.1,2.1,9.86s-.7,7-2.1,9.79c-1.4,2.8-3.37,4.97-5.91,6.52-2.54,1.55-5.51,2.33-8.92,2.33ZM2075.24,285.7c2.2,0,4.02-.58,5.46-1.73,1.44-1.15,2.5-2.69,3.21-4.6.7-1.91,1.05-4.01,1.05-6.3s-.35-4.43-1.05-6.36c-.7-1.93-1.77-3.48-3.21-4.63-1.44-1.15-3.25-1.73-5.46-1.73s-3.98.58-5.41,1.73c-1.42,1.16-2.49,2.7-3.19,4.63-.7,1.93-1.05,4.05-1.05,6.36s.35,4.39,1.05,6.3c.7,1.91,1.76,3.44,3.19,4.6,1.42,1.16,3.23,1.73,5.41,1.73Z"/>
    <path class="cls-2" d="M2100.07,290.98v-36.2h6.9v5.83h.39c.65-1.96,1.81-3.51,3.48-4.65s3.57-1.7,5.68-1.7c.45,0,.98.02,1.57.06.59.04,1.07.09,1.44.13v6.8c-.26-.06-.76-.15-1.49-.24-.73-.1-1.48-.15-2.23-.15-2.48,0-4.54.76-6.17,2.28-1.63,1.52-2.45,3.47-2.45,5.84v21.99h-7.12Z"/>
    <path class="cls-2" d="M2137.92,291.69c-2.94,0-5.54-.74-7.82-2.23-2.28-1.49-4.07-3.64-5.38-6.44-1.31-2.81-1.96-6.15-1.96-10.04s.66-7.29,1.97-10.07c1.32-2.78,3.11-4.91,5.39-6.38,2.28-1.47,4.87-2.2,7.79-2.2,2.24,0,4.06.37,5.44,1.12,1.38.74,2.46,1.62,3.22,2.62.77,1,1.35,1.87,1.76,2.61h.39v-17.94h7.12v48.24h-6.93v-5.67h-.58c-.43.78-1.04,1.66-1.83,2.66-.79.99-1.87,1.86-3.25,2.61-1.38.74-3.16,1.12-5.34,1.12ZM2139.48,285.63c3.02,0,5.34-1.18,6.96-3.53,1.62-2.35,2.43-5.42,2.43-9.2s-.8-6.78-2.4-9.08c-1.6-2.3-3.93-3.45-6.99-3.45-2.09,0-3.84.55-5.23,1.65-1.39,1.1-2.44,2.6-3.14,4.48-.7,1.89-1.05,4.02-1.05,6.39s.36,4.55,1.07,6.48c.71,1.92,1.77,3.44,3.17,4.57,1.4,1.12,3.13,1.68,5.18,1.68Z"/>
    <path class="cls-2" d="M2181.05,291.72c-3.56,0-6.64-.77-9.23-2.3-2.59-1.53-4.58-3.69-5.97-6.48-1.39-2.78-2.09-6.05-2.09-9.81s.68-6.98,2.06-9.81c1.37-2.83,3.31-5.03,5.81-6.62,2.5-1.59,5.44-2.38,8.81-2.38,2.74,0,5.35.61,7.82,1.83,2.47,1.22,4.48,3.16,6.02,5.83,1.54,2.67,2.32,6.18,2.32,10.54v2.53h-25.68c.13,3.5,1.12,6.17,2.98,8.01,1.86,1.85,4.26,2.77,7.22,2.77,1.99,0,3.7-.43,5.13-1.3,1.43-.86,2.47-2.14,3.09-3.82l6.7,1.59c-.86,2.83-2.61,5.11-5.25,6.83-2.63,1.73-5.88,2.59-9.75,2.59ZM2170.95,269.73h18.58c-.26-2.85-1.15-5.15-2.67-6.9-1.52-1.75-3.65-2.62-6.4-2.62s-5.1.93-6.75,2.8c-1.65,1.87-2.57,4.11-2.77,6.72Z"/>
    <path class="cls-2" d="M2204.39,290.98v-36.2h6.9v5.83h.39c.65-1.96,1.81-3.51,3.48-4.65s3.57-1.7,5.68-1.7c.45,0,.98.02,1.57.06.59.04,1.07.09,1.44.13v6.8c-.26-.06-.76-.15-1.49-.24-.73-.1-1.48-.15-2.23-.15-2.48,0-4.54.76-6.17,2.28-1.63,1.52-2.45,3.47-2.45,5.84v21.99h-7.12Z"/>
    <path class="cls-2" d="M2263.2,254.78v5.8h-7.22v20.63c0,1.45.31,2.51.92,3.19s1.62,1.02,3.03,1.02c.39,0,.88-.04,1.47-.13.59-.09,1.11-.17,1.54-.26l1.26,5.7c-.76.26-1.57.45-2.44.57-.87.12-1.72.18-2.54.18-3.28,0-5.83-.85-7.64-2.54-1.81-1.69-2.72-4.07-2.72-7.14v-21.21h-5.28v-5.8h5.28v-8.61h7.12v8.61h7.22Z"/>
    <path class="cls-2" d="M2284.86,291.72c-3.39,0-6.35-.78-8.89-2.33-2.54-1.55-4.51-3.73-5.91-6.52-1.4-2.8-2.1-6.06-2.1-9.79s.7-7.04,2.1-9.86,3.37-5,5.91-6.56c2.54-1.55,5.5-2.33,8.89-2.33s6.38.78,8.92,2.33c2.54,1.55,4.51,3.74,5.91,6.56,1.4,2.82,2.1,6.1,2.1,9.86s-.7,7-2.1,9.79c-1.4,2.8-3.37,4.97-5.91,6.52-2.54,1.55-5.51,2.33-8.92,2.33ZM2284.86,285.7c2.2,0,4.02-.58,5.46-1.73,1.44-1.15,2.5-2.69,3.21-4.6.7-1.91,1.05-4.01,1.05-6.3s-.35-4.43-1.05-6.36c-.7-1.93-1.77-3.48-3.21-4.63-1.44-1.15-3.25-1.73-5.46-1.73s-3.98.58-5.41,1.73c-1.42,1.16-2.49,2.7-3.19,4.63-.7,1.93-1.05,4.05-1.05,6.36s.35,4.39,1.05,6.3c.7,1.91,1.76,3.44,3.19,4.6,1.42,1.16,3.23,1.73,5.41,1.73Z"/>
    <path class="cls-2" d="M2340.35,291.72c-3.93,0-7.18-.85-9.76-2.54-2.58-1.69-4.19-4.15-4.84-7.37l6.7-1.39c.97,3.69,3.63,5.54,7.96,5.54,2.31,0,4.14-.48,5.49-1.44,1.35-.96,2.02-2.11,2.02-3.45,0-2.29-1.7-3.81-5.08-4.57l-6.09-1.39c-6.65-1.49-9.97-4.82-9.97-10.01,0-2.16.6-4.05,1.8-5.67,1.2-1.62,2.85-2.88,4.95-3.77,2.1-.9,4.53-1.34,7.27-1.34,3.91,0,6.97.84,9.2,2.51,2.22,1.67,3.72,3.85,4.5,6.52l-6.38,1.39c-.45-1.27-1.24-2.39-2.36-3.35-1.12-.96-2.75-1.44-4.89-1.44-1.96,0-3.61.44-4.92,1.33-1.32.89-1.97,2.01-1.97,3.37,0,1.21.44,2.19,1.31,2.93.87.74,2.3,1.34,4.29,1.8l5.83,1.3c6.58,1.49,9.88,4.75,9.88,9.78,0,2.2-.63,4.15-1.89,5.84-1.26,1.69-3.02,3.02-5.26,3.98s-4.84,1.44-7.77,1.44Z"/>
    <path class="cls-2" d="M2378.69,291.72c-3.56,0-6.64-.77-9.23-2.3-2.59-1.53-4.58-3.69-5.97-6.48-1.39-2.78-2.09-6.05-2.09-9.81s.68-6.98,2.06-9.81c1.37-2.83,3.31-5.03,5.81-6.62,2.5-1.59,5.44-2.38,8.81-2.38,2.74,0,5.35.61,7.82,1.83,2.47,1.22,4.48,3.16,6.02,5.83,1.54,2.67,2.32,6.18,2.32,10.54v2.53h-25.68c.13,3.5,1.12,6.17,2.98,8.01,1.86,1.85,4.26,2.77,7.22,2.77,1.99,0,3.7-.43,5.13-1.3,1.43-.86,2.47-2.14,3.09-3.82l6.7,1.59c-.86,2.83-2.61,5.11-5.25,6.83-2.63,1.73-5.88,2.59-9.75,2.59ZM2368.59,269.73h18.58c-.26-2.85-1.15-5.15-2.67-6.9-1.52-1.75-3.65-2.62-6.4-2.62s-5.1.93-6.75,2.8c-1.65,1.87-2.57,4.11-2.77,6.72Z"/>
    <path class="cls-2" d="M2417.64,291.72c-3.56,0-6.64-.77-9.23-2.3-2.59-1.53-4.58-3.69-5.97-6.48-1.39-2.78-2.09-6.05-2.09-9.81s.68-6.98,2.06-9.81c1.37-2.83,3.31-5.03,5.81-6.62,2.5-1.59,5.44-2.38,8.81-2.38,2.74,0,5.35.61,7.82,1.83,2.47,1.22,4.48,3.16,6.02,5.83,1.54,2.67,2.32,6.18,2.32,10.54v2.53h-25.68c.13,3.5,1.12,6.17,2.98,8.01,1.86,1.85,4.26,2.77,7.22,2.77,1.99,0,3.7-.43,5.13-1.3,1.43-.86,2.47-2.14,3.09-3.82l6.7,1.59c-.86,2.83-2.61,5.11-5.25,6.83-2.63,1.73-5.88,2.59-9.75,2.59ZM2407.54,269.73h18.58c-.26-2.85-1.15-5.15-2.67-6.9-1.52-1.75-3.65-2.62-6.4-2.62s-5.1.93-6.75,2.8c-1.65,1.87-2.57,4.11-2.77,6.72Z"/>
    <path class="cls-2" d="M2474.14,254.78v5.8h-7.22v20.63c0,1.45.31,2.51.92,3.19s1.62,1.02,3.03,1.02c.39,0,.88-.04,1.47-.13.59-.09,1.11-.17,1.54-.26l1.26,5.7c-.76.26-1.57.45-2.44.57-.87.12-1.72.18-2.54.18-3.28,0-5.83-.85-7.64-2.54-1.81-1.69-2.72-4.07-2.72-7.14v-21.21h-5.28v-5.8h5.28v-8.61h7.12v8.61h7.22Z"/>
    <path class="cls-2" d="M2488.42,269.54v21.43h-7.12v-48.24h7.06v18.55c1.14-2.4,2.63-4.16,4.47-5.28,1.83-1.12,3.99-1.68,6.48-1.68,3.69,0,6.67,1.16,8.94,3.48,2.27,2.32,3.4,5.71,3.4,10.18v22.99h-7.16v-22.11c0-2.61-.68-4.65-2.04-6.12-1.36-1.47-3.23-2.2-5.6-2.2s-4.43.78-6.02,2.35c-1.6,1.57-2.4,3.78-2.4,6.65Z"/>
    <path class="cls-2" d="M2524.78,249.24c-1.23,0-2.28-.41-3.16-1.23-.88-.82-1.31-1.81-1.31-2.98s.44-2.19,1.31-3.01c.87-.82,1.93-1.23,3.16-1.23s2.29.41,3.17,1.23c.88.82,1.33,1.82,1.33,3.01s-.44,2.16-1.33,2.98c-.89.82-1.94,1.23-3.17,1.23ZM2521.19,290.98v-36.2h7.12v36.2h-7.12Z"/>
    <path class="cls-2" d="M2550.88,291.72c-3.93,0-7.18-.85-9.76-2.54-2.58-1.69-4.19-4.15-4.84-7.37l6.7-1.39c.97,3.69,3.63,5.54,7.96,5.54,2.31,0,4.14-.48,5.49-1.44,1.35-.96,2.02-2.11,2.02-3.45,0-2.29-1.7-3.81-5.08-4.57l-6.09-1.39c-6.65-1.49-9.97-4.82-9.97-10.01,0-2.16.6-4.05,1.8-5.67,1.2-1.62,2.85-2.88,4.95-3.77,2.1-.9,4.53-1.34,7.27-1.34,3.91,0,6.97.84,9.2,2.51,2.22,1.67,3.72,3.85,4.5,6.52l-6.38,1.39c-.45-1.27-1.24-2.39-2.36-3.35-1.12-.96-2.75-1.44-4.89-1.44-1.96,0-3.61.44-4.92,1.33-1.32.89-1.97,2.01-1.97,3.37,0,1.21.44,2.19,1.31,2.93.87.74,2.3,1.34,4.29,1.8l5.83,1.3c6.58,1.49,9.88,4.75,9.88,9.78,0,2.2-.63,4.15-1.89,5.84-1.26,1.69-3.02,3.02-5.26,3.98s-4.84,1.44-7.77,1.44Z"/>
    <path class="cls-2" d="M2591.29,290.98v-36.2h6.77l.16,6.77c.93-2.5,2.32-4.36,4.18-5.57,1.86-1.21,3.86-1.81,6.02-1.81,2.35,0,4.31.67,5.86,2.01,1.55,1.34,2.69,3.21,3.4,5.6.91-2.44,2.4-4.32,4.48-5.63,2.08-1.32,4.41-1.98,6.98-1.98,2.14,0,4.07.46,5.8,1.39,1.73.93,3.1,2.31,4.13,4.14,1.03,1.83,1.54,4.12,1.54,6.86v24.41h-7.12v-23.7c0-2.42-.67-4.17-2.02-5.25-1.35-1.08-2.94-1.62-4.78-1.62-2.25,0-4.01.69-5.29,2.07-1.28,1.38-1.93,3.15-1.93,5.31v23.18h-7.03v-24.15c0-1.94-.62-3.5-1.86-4.66-1.24-1.17-2.82-1.75-4.74-1.75s-3.72.69-5.2,2.06c-1.48,1.37-2.22,3.37-2.22,6.01v22.5h-7.12Z"/>
    <path class="cls-2" d="M2665.4,291.72c-3.39,0-6.35-.78-8.89-2.33-2.54-1.55-4.51-3.73-5.91-6.52-1.4-2.8-2.1-6.06-2.1-9.79s.7-7.04,2.1-9.86,3.37-5,5.91-6.56c2.54-1.55,5.5-2.33,8.89-2.33s6.38.78,8.92,2.33c2.54,1.55,4.51,3.74,5.91,6.56,1.4,2.82,2.1,6.1,2.1,9.86s-.7,7-2.1,9.79c-1.4,2.8-3.37,4.97-5.91,6.52-2.54,1.55-5.51,2.33-8.92,2.33ZM2665.4,285.7c2.2,0,4.02-.58,5.46-1.73,1.44-1.15,2.5-2.69,3.21-4.6.7-1.91,1.05-4.01,1.05-6.3s-.35-4.43-1.05-6.36c-.7-1.93-1.77-3.48-3.21-4.63-1.44-1.15-3.25-1.73-5.46-1.73s-3.98.58-5.41,1.73c-1.42,1.16-2.49,2.7-3.19,4.63-.7,1.93-1.05,4.05-1.05,6.36s.35,4.39,1.05,6.3c.7,1.91,1.76,3.44,3.19,4.6,1.42,1.16,3.23,1.73,5.41,1.73Z"/>
    <path class="cls-2" d="M2703.71,291.69c-2.94,0-5.54-.74-7.82-2.23-2.28-1.49-4.07-3.64-5.38-6.44-1.31-2.81-1.96-6.15-1.96-10.04s.66-7.29,1.97-10.07c1.32-2.78,3.11-4.91,5.39-6.38,2.28-1.47,4.87-2.2,7.79-2.2,2.24,0,4.06.37,5.44,1.12,1.38.74,2.46,1.62,3.22,2.62.77,1,1.35,1.87,1.76,2.61h.39v-17.94h7.12v48.24h-6.93v-5.67h-.58c-.43.78-1.04,1.66-1.83,2.66-.79.99-1.87,1.86-3.25,2.61-1.38.74-3.16,1.12-5.34,1.12ZM2705.26,285.63c3.02,0,5.34-1.18,6.96-3.53,1.62-2.35,2.43-5.42,2.43-9.2s-.8-6.78-2.4-9.08c-1.6-2.3-3.93-3.45-6.99-3.45-2.09,0-3.84.55-5.23,1.65-1.39,1.1-2.44,2.6-3.14,4.48-.7,1.89-1.05,4.02-1.05,6.39s.36,4.55,1.07,6.48c.71,1.92,1.77,3.44,3.17,4.57,1.4,1.12,3.13,1.68,5.18,1.68Z"/>
    <path class="cls-2" d="M2743.56,291.43c-3.69,0-6.67-1.16-8.94-3.48-2.27-2.32-3.4-5.71-3.4-10.18v-22.99h7.12v22.11c0,2.61.69,4.65,2.06,6.12,1.37,1.47,3.23,2.2,5.58,2.2s4.42-.78,6.02-2.35c1.6-1.56,2.4-3.78,2.4-6.65v-21.43h7.16v36.2h-6.83l-.03-7.03c-1.14,2.63-2.66,4.54-4.55,5.71-1.89,1.18-4.09,1.76-6.59,1.76Z"/>
    <path class="cls-2" d="M2778.24,242.73v48.24h-7.12v-48.24h7.12Z"/>
    <path class="cls-2" d="M2803.43,291.72c-3.56,0-6.64-.77-9.23-2.3-2.59-1.53-4.58-3.69-5.97-6.48-1.39-2.78-2.09-6.05-2.09-9.81s.68-6.98,2.06-9.81c1.37-2.83,3.31-5.03,5.81-6.62,2.5-1.59,5.44-2.38,8.81-2.38,2.74,0,5.35.61,7.82,1.83,2.47,1.22,4.48,3.16,6.02,5.83,1.54,2.67,2.32,6.18,2.32,10.54v2.53h-25.68c.13,3.5,1.12,6.17,2.98,8.01,1.86,1.85,4.26,2.77,7.22,2.77,1.99,0,3.7-.43,5.13-1.3,1.43-.86,2.47-2.14,3.09-3.82l6.7,1.59c-.86,2.83-2.61,5.11-5.25,6.83-2.63,1.73-5.88,2.59-9.75,2.59ZM2793.33,269.73h18.58c-.26-2.85-1.15-5.15-2.67-6.9-1.52-1.75-3.65-2.62-6.4-2.62s-5.1.93-6.75,2.8c-1.65,1.87-2.57,4.11-2.77,6.72Z"/>
    <path class="cls-2" d="M2832.05,291.46c-1.34,0-2.47-.46-3.4-1.38-.93-.92-1.39-2.04-1.39-3.38s.46-2.47,1.39-3.4c.93-.93,2.06-1.39,3.4-1.39s2.47.46,3.38,1.39c.92.93,1.38,2.06,1.38,3.4s-.46,2.47-1.38,3.38c-.92.92-2.04,1.38-3.38,1.38Z"/>
  </g>
  <path class="cls-2" d="M397.55,158.59c-.04-26.12-20.38-47.52-44.24-55.25-29.64-9.59-68.73-8.2-97.03,5.15-34.3,16.18-45.08,51.64-45.48,87-.33,29.07,2.57,105.65,45.76,106.19,32.09.41,36.87-40.94,51.72-60.86,10.57-14.17,24.17-18.17,40.91-22.32,28.78-7.12,48.39-29.84,48.35-59.92Z"/>
</svg>