<?xml version="1.0" encoding="UTF-8"?>
<svg id="Layer_1" data-name="Layer 1" xmlns="http://www.w3.org/2000/svg" viewBox="0 0 975.59 187.92">
  <defs>
    <style>
      .cls-1 {
        fill: #f0597a;
      }

      .cls-1, .cls-2, .cls-3 {
        stroke-width: 0px;
      }

      .cls-2 {
        fill: #efc422;
      }

      .cls-3 {
        fill: #19b9e7;
      }
    </style>
  </defs>
  <path class="cls-2" d="M975.59,187.92H0V0h975.59v187.92ZM9.53,178.4h956.53V9.53H9.53v168.87Z"/>
  <g>
    <path class="cls-3" d="M550.64,113.96c0,12.21-10.63,18.81-23.82,18.81-12.21,0-21.01-5.5-24.92-14.29l11.36-6.6c1.95,5.5,6.84,8.79,13.56,8.79,5.86,0,10.38-1.95,10.38-6.84,0-10.87-32.86-4.76-32.86-26.63,0-11.48,9.89-18.69,22.35-18.69,10.02,0,18.32,4.64,22.6,12.7l-11.12,6.23c-2.2-4.76-6.47-6.96-11.48-6.96s-8.92,2.08-8.92,6.47c0,11.12,32.86,4.4,32.86,26.99Z"/>
    <path class="cls-3" d="M614.64,93.68v37.5h-13.19v-36.16c0-9.28-5.37-14.17-13.68-14.17s-15.51,5.13-15.51,17.59v32.74h-13.19V45.68h13.19v32.25c4.03-6.35,10.63-9.41,18.93-9.41,13.68,0,23.45,9.28,23.45,25.16Z"/>
    <path class="cls-3" d="M687.93,70.11v61.07h-13.19v-8.79c-4.64,6.47-11.85,10.38-21.38,10.38-16.61,0-30.41-14.05-30.41-32.12s13.8-32.12,30.41-32.12c9.53,0,16.73,3.91,21.38,10.26v-8.67h13.19ZM674.74,100.64c0-11.36-8.31-19.54-19.3-19.54s-19.3,8.18-19.3,19.54,8.31,19.54,19.3,19.54,19.3-8.18,19.3-19.54Z"/>
    <path class="cls-3" d="M762.43,45.68v85.5h-13.19v-8.79c-4.64,6.47-11.85,10.38-21.38,10.38-16.61,0-30.41-14.05-30.41-32.12s13.8-32.12,30.41-32.12c9.53,0,16.73,3.91,21.38,10.26v-33.1h13.19ZM749.24,100.64c0-11.36-8.31-19.54-19.3-19.54s-19.3,8.18-19.3,19.54,8.31,19.54,19.3,19.54,19.3-8.18,19.3-19.54Z"/>
    <path class="cls-3" d="M805.3,120.68c7.33,0,12.83-3.3,15.76-7.57l10.87,6.35c-5.62,8.31-14.78,13.31-26.75,13.31-20.15,0-33.22-13.8-33.22-32.12s13.07-32.12,32.25-32.12,30.66,14.66,30.66,32.25c0,1.83-.24,3.79-.49,5.5h-48.61c2.08,9.53,9.77,14.41,19.54,14.41ZM821.55,95.51c-1.83-10.5-9.53-15.02-17.47-15.02-9.89,0-16.61,5.86-18.44,15.02h35.91Z"/>
    <path class="cls-3" d="M876.03,69.01v14.29c-8.67-.61-18.81,3.42-18.81,17.1v30.78h-13.19v-61.07h13.19v10.26c3.66-8.31,11.12-11.36,18.81-11.36Z"/>
    <path class="cls-3" d="M925.86,113.96c0,12.21-10.63,18.81-23.82,18.81-12.21,0-21.01-5.5-24.92-14.29l11.36-6.6c1.95,5.5,6.84,8.79,13.56,8.79,5.86,0,10.38-1.95,10.38-6.84,0-10.87-32.86-4.76-32.86-26.63,0-11.48,9.89-18.69,22.35-18.69,10.02,0,18.32,4.64,22.6,12.7l-11.11,6.23c-2.2-4.76-6.47-6.96-11.48-6.96s-8.92,2.08-8.92,6.47c0,11.12,32.86,4.4,32.86,26.99Z"/>
  </g>
  <g>
    <path class="cls-3" d="M115.12,100.64c0,18.2-13.8,32.12-30.41,32.12-9.53,0-16.73-3.91-21.38-10.26v33.1h-13.19v-85.5h13.19v8.79c4.64-6.47,11.85-10.38,21.38-10.38,16.61,0,30.41,14.05,30.41,32.12ZM101.93,100.64c0-11.36-8.31-19.54-19.3-19.54s-19.3,8.18-19.3,19.54,8.31,19.54,19.3,19.54,19.3-8.18,19.3-19.54Z"/>
    <path class="cls-3" d="M121.23,100.64c0-18.2,14.41-32.12,32.25-32.12s32.25,13.92,32.25,32.12-14.29,32.12-32.25,32.12-32.25-14.05-32.25-32.12ZM172.53,100.64c0-11.12-8.31-19.3-19.05-19.3s-19.05,8.18-19.05,19.3,8.31,19.3,19.05,19.3,19.05-8.18,19.05-19.3Z"/>
    <path class="cls-3" d="M276.47,70.11l-23.45,63.03c-5.74,15.51-15.76,23.33-29.8,22.47v-12.34c8.55.49,13.19-3.91,16.25-11.97l.61-1.22-25.89-59.97h14.41l18.2,44.34,15.63-44.34h14.05Z"/>
    <path class="cls-3" d="M276.47,100.64c0-18.2,14.41-32.12,32.25-32.12s32.25,13.92,32.25,32.12-14.29,32.12-32.25,32.12-32.25-14.05-32.25-32.12ZM327.77,100.64c0-11.12-8.31-19.3-19.05-19.3s-19.05,8.18-19.05,19.3,8.31,19.3,19.05,19.3,19.05-8.18,19.05-19.3Z"/>
    <path class="cls-3" d="M440.27,93.32v37.87h-13.19v-37.01c0-8.55-4.64-13.31-11.85-13.31-7.82,0-13.31,5.01-13.31,16.12v34.2h-13.19v-37.01c0-8.55-4.28-13.31-11.48-13.31s-13.56,5.01-13.56,16.12v34.2h-13.19v-61.07h13.19v7.33c3.91-5.99,9.89-8.92,17.47-8.92s13.8,3.54,17.34,9.65c4.03-6.35,10.5-9.65,18.69-9.65,13.8,0,23.09,9.53,23.09,24.8Z"/>
    <g>
      <rect class="cls-3" x="195.25" y="70.11" width="13.19" height="61.07"/>
      <path class="cls-1" d="M206.58,42.85c-3.05,0-4.74,2.2-4.74,2.2,0,0-1.69-2.2-4.74-2.2-3.2,0-5.79,2.59-5.79,5.79,0,4.39,5.17,8.65,6.62,10,1.66,1.55,3.92,3.54,3.92,3.54,0,0,2.26-1.99,3.92-3.54,1.44-1.35,6.62-5.6,6.62-10,0-3.2-2.59-5.79-5.79-5.79Z"/>
    </g>
    <g>
      <rect class="cls-3" x="451.99" y="70.11" width="13.19" height="61.07"/>
      <path class="cls-1" d="M463.33,42.85c-3.05,0-4.74,2.2-4.74,2.2,0,0-1.69-2.2-4.74-2.2-3.2,0-5.79,2.59-5.79,5.79,0,4.39,5.17,8.65,6.62,10,1.66,1.55,3.92,3.54,3.92,3.54,0,0,2.26-1.99,3.92-3.54,1.44-1.35,6.62-5.6,6.62-10,0-3.2-2.59-5.79-5.79-5.79Z"/>
    </g>
  </g>
</svg>