<?xml version="1.0" encoding="UTF-8"?>
<svg id="Layer_1" data-name="Layer 1" xmlns="http://www.w3.org/2000/svg" viewBox="0 0 999 106.09">
  <defs>
    <style>
      .cls-1 {
        fill: #f0597a;
      }

      .cls-2 {
        fill: #fff;
      }
    </style>
  </defs>
  <g>
    <path d="M24.03,2.94h950.94c11.64,0,21.09,9.45,21.09,21.09v58.03c0,11.64-9.45,21.08-21.08,21.08H24.03c-11.64,0-21.08-9.45-21.08-21.08V24.03C2.94,12.39,12.39,2.94,24.03,2.94Z"/>
    <path class="cls-1" d="M974.97,5.89c10,0,18.14,8.14,18.14,18.14v58.03c0,10-8.14,18.14-18.14,18.14H24.03c-10,0-18.14-8.14-18.14-18.14V24.03C5.89,14.03,14.03,5.89,24.03,5.89h950.94M974.97,0H24.03C10.76,0,0,10.76,0,24.03v58.03c0,13.27,10.76,24.03,24.03,24.03h950.94c13.27,0,24.03-10.76,24.03-24.03V24.03c0-13.27-10.76-24.03-24.03-24.03h0Z"/>
  </g>
  <g>
    <path class="cls-2" d="M195.12,27.52h-6.8v20.45h-4.97v-20.45h-6.77v-4.75h18.54v4.75Z"/>
    <path class="cls-2" d="M214.48,36.92v11.05h-4.64v-10.47c0-2.45-1.48-3.71-3.56-3.71-2.27,0-3.96,1.33-3.96,4.46v9.72h-4.64v-25.2h4.64v9.21c1.08-1.62,2.95-2.52,5.36-2.52,3.82,0,6.8,2.66,6.8,7.45Z"/>
    <path class="cls-2" d="M217.9,24.97c0-1.55,1.3-2.88,2.84-2.88s2.88,1.33,2.88,2.88-1.3,2.84-2.88,2.84-2.84-1.3-2.84-2.84ZM218.44,29.97h4.64v18h-4.64v-18Z"/>
    <path class="cls-2" d="M240.75,42.71c0,3.89-3.38,5.76-7.23,5.76-3.6,0-6.26-1.51-7.56-4.28l4.03-2.27c.5,1.48,1.73,2.34,3.53,2.34,1.48,0,2.48-.5,2.48-1.55,0-2.63-9.29-1.19-9.29-7.52,0-3.67,3.13-5.72,6.84-5.72,2.92,0,5.44,1.33,6.84,3.82l-3.96,2.16c-.54-1.15-1.55-1.84-2.88-1.84-1.15,0-2.09.5-2.09,1.48,0,2.66,9.29,1.01,9.29,7.63Z"/>
    <path class="cls-2" d="M258.1,27.52v5.98h9.79v4.75h-9.79v9.72h-4.97v-25.2h15.05v4.75h-10.08Z"/>
    <path class="cls-2" d="M280.59,44.26c1.8,0,3.24-.76,4.03-1.8l3.74,2.16c-1.69,2.45-4.39,3.85-7.85,3.85-6.05,0-9.86-4.14-9.86-9.5s3.85-9.5,9.5-9.5c5.33,0,9.11,4.21,9.11,9.5,0,.68-.07,1.3-.18,1.91h-13.57c.65,2.38,2.63,3.38,5.08,3.38ZM284.63,37.28c-.58-2.59-2.52-3.64-4.46-3.64-2.48,0-4.18,1.33-4.72,3.64h9.18Z"/>
    <path class="cls-2" d="M310.68,29.97v18h-4.64v-2.12c-1.3,1.62-3.24,2.63-5.87,2.63-4.79,0-8.75-4.14-8.75-9.5s3.96-9.5,8.75-9.5c2.63,0,4.57,1.01,5.87,2.63v-2.12h4.64ZM306.04,38.97c0-3.02-2.12-5.08-5-5.08s-4.97,2.05-4.97,5.08,2.12,5.08,4.97,5.08,5-2.05,5-5.08Z"/>
    <path class="cls-2" d="M321.12,34.43v7.49c0,1.94,1.4,1.98,4.07,1.84v4.21c-6.52.72-8.71-1.19-8.71-6.05v-7.49h-3.13v-4.46h3.13v-3.64l4.64-1.4v5.04h4.07v4.46h-4.07Z"/>
    <path class="cls-2" d="M345.27,29.97v18h-4.64v-2.02c-1.08,1.62-2.95,2.52-5.36,2.52-3.82,0-6.8-2.66-6.8-7.45v-11.05h4.64v10.47c0,2.45,1.48,3.71,3.56,3.71,2.27,0,3.96-1.33,3.96-4.46v-9.72h4.64Z"/>
    <path class="cls-2" d="M359.63,29.61v5.18c-2.41-.29-5.47.79-5.47,4.57v8.6h-4.64v-18h4.64v3.1c.94-2.45,3.2-3.46,5.47-3.46Z"/>
    <path class="cls-2" d="M370.64,44.26c1.8,0,3.24-.76,4.03-1.8l3.74,2.16c-1.69,2.45-4.39,3.85-7.85,3.85-6.05,0-9.86-4.14-9.86-9.5s3.85-9.5,9.5-9.5c5.33,0,9.11,4.21,9.11,9.5,0,.68-.07,1.3-.18,1.91h-13.57c.65,2.38,2.63,3.38,5.08,3.38ZM374.67,37.28c-.58-2.59-2.52-3.64-4.46-3.64-2.48,0-4.18,1.33-4.72,3.64h9.18Z"/>
    <path class="cls-2" d="M391.01,24.97c0-1.55,1.3-2.88,2.84-2.88s2.88,1.33,2.88,2.88-1.3,2.84-2.88,2.84-2.84-1.3-2.84-2.84ZM391.55,29.97h4.64v18h-4.64v-18Z"/>
    <path class="cls-2" d="M413.87,42.71c0,3.89-3.38,5.76-7.23,5.76-3.6,0-6.26-1.51-7.56-4.28l4.03-2.27c.5,1.48,1.73,2.34,3.53,2.34,1.48,0,2.48-.5,2.48-1.55,0-2.63-9.29-1.19-9.29-7.52,0-3.67,3.13-5.72,6.84-5.72,2.92,0,5.44,1.33,6.84,3.82l-3.96,2.16c-.54-1.15-1.55-1.84-2.88-1.84-1.15,0-2.09.5-2.09,1.48,0,2.66,9.29,1.01,9.29,7.63Z"/>
    <path class="cls-2" d="M425.09,38.97c0-5.36,4.21-9.5,9.5-9.5s9.54,4.14,9.54,9.5-4.25,9.5-9.54,9.5-9.5-4.14-9.5-9.5ZM439.49,38.97c0-2.92-2.12-4.97-4.9-4.97s-4.86,2.05-4.86,4.97,2.12,4.97,4.86,4.97,4.9-2.05,4.9-4.97Z"/>
    <path class="cls-2" d="M464.22,36.92v11.05h-4.64v-10.47c0-2.45-1.48-3.71-3.56-3.71-2.27,0-3.96,1.33-3.96,4.46v9.72h-4.64v-18h4.64v2.02c1.08-1.62,2.95-2.52,5.36-2.52,3.82,0,6.8,2.66,6.8,7.45Z"/>
    <path class="cls-2" d="M468.17,21.69h4.64v26.28h-4.64v-26.28Z"/>
    <path class="cls-2" d="M493.77,29.97l-6.55,18c-1.87,5.18-4.93,7.45-9.5,7.2v-4.32c2.56.04,3.85-1.04,4.72-3.46l-7.38-17.42h5.08l4.68,12.09,4-12.09h4.97Z"/>
    <path class="cls-2" d="M523.28,29.97v18h-4.64v-2.12c-1.3,1.62-3.24,2.63-5.87,2.63-4.79,0-8.75-4.14-8.75-9.5s3.96-9.5,8.75-9.5c2.63,0,4.57,1.01,5.87,2.63v-2.12h4.64ZM518.64,38.97c0-3.02-2.12-5.08-5-5.08s-4.97,2.05-4.97,5.08,2.12,5.08,4.97,5.08,5-2.05,5-5.08Z"/>
    <path class="cls-2" d="M544.44,29.97l-6.84,18h-5.29l-6.84-18h5.11l4.36,12.6,4.39-12.6h5.11Z"/>
    <path class="cls-2" d="M564.27,29.97v18h-4.64v-2.12c-1.3,1.62-3.24,2.63-5.87,2.63-4.79,0-8.75-4.14-8.75-9.5s3.96-9.5,8.75-9.5c2.63,0,4.57,1.01,5.87,2.63v-2.12h4.64ZM559.63,38.97c0-3.02-2.12-5.08-5-5.08s-4.97,2.05-4.97,5.08,2.12,5.08,4.97,5.08,5-2.05,5-5.08Z"/>
    <path class="cls-2" d="M567.94,24.97c0-1.55,1.3-2.88,2.84-2.88s2.88,1.33,2.88,2.88-1.29,2.84-2.88,2.84-2.84-1.3-2.84-2.84ZM568.48,29.97h4.64v18h-4.64v-18Z"/>
    <path class="cls-2" d="M577.37,21.69h4.64v26.28h-4.64v-26.28Z"/>
    <path class="cls-2" d="M604.58,29.97v18h-4.64v-2.12c-1.3,1.62-3.24,2.63-5.87,2.63-4.79,0-8.75-4.14-8.75-9.5s3.96-9.5,8.75-9.5c2.63,0,4.57,1.01,5.87,2.63v-2.12h4.64ZM599.94,38.97c0-3.02-2.12-5.08-5-5.08s-4.97,2.05-4.97,5.08,2.12,5.08,4.97,5.08,5-2.05,5-5.08Z"/>
    <path class="cls-2" d="M628.05,38.97c0,5.36-3.96,9.5-8.78,9.5-2.63,0-4.54-.97-5.83-2.63v2.12h-4.64v-25.2h4.64v9.32c1.3-1.66,3.2-2.63,5.83-2.63,4.82,0,8.78,4.14,8.78,9.5ZM623.4,38.97c0-3.02-2.12-5.08-5-5.08s-4.97,2.05-4.97,5.08,2.12,5.08,4.97,5.08,5-2.05,5-5.08Z"/>
    <path class="cls-2" d="M631.32,21.69h4.64v26.28h-4.64v-26.28Z"/>
    <path class="cls-2" d="M649.21,44.26c1.8,0,3.24-.76,4.03-1.8l3.74,2.16c-1.69,2.45-4.39,3.85-7.85,3.85-6.05,0-9.86-4.14-9.86-9.5s3.85-9.5,9.5-9.5c5.33,0,9.11,4.21,9.11,9.5,0,.68-.07,1.3-.18,1.91h-13.57c.65,2.38,2.63,3.38,5.08,3.38ZM653.24,37.28c-.58-2.59-2.52-3.64-4.46-3.64-2.48,0-4.17,1.33-4.71,3.64h9.18Z"/>
    <path class="cls-2" d="M669.58,24.97c0-1.55,1.3-2.88,2.84-2.88s2.88,1.33,2.88,2.88-1.29,2.84-2.88,2.84-2.84-1.3-2.84-2.84ZM670.12,29.97h4.64v18h-4.64v-18Z"/>
    <path class="cls-2" d="M695.82,36.92v11.05h-4.64v-10.47c0-2.45-1.48-3.71-3.56-3.71-2.27,0-3.96,1.33-3.96,4.46v9.72h-4.64v-18h4.64v2.02c1.08-1.62,2.95-2.52,5.36-2.52,3.82,0,6.8,2.66,6.8,7.45Z"/>
    <path class="cls-2" d="M726.98,31.23c0,4.72-3.74,8.46-8.6,8.46h-4.43v8.28h-4.97v-25.2h9.39c4.86,0,8.6,3.74,8.6,8.46ZM722.05,31.23c0-2.2-1.55-3.82-3.67-3.82h-4.43v7.63h4.43c2.12,0,3.67-1.66,3.67-3.82Z"/>
    <path class="cls-2" d="M727.88,38.97c0-5.36,4.21-9.5,9.5-9.5s9.54,4.14,9.54,9.5-4.25,9.5-9.54,9.5-9.5-4.14-9.5-9.5ZM742.28,38.97c0-2.92-2.12-4.97-4.9-4.97s-4.86,2.05-4.86,4.97,2.12,4.97,4.86,4.97,4.9-2.05,4.9-4.97Z"/>
    <path class="cls-2" d="M749.65,24.97c0-1.55,1.3-2.88,2.84-2.88s2.88,1.33,2.88,2.88-1.29,2.84-2.88,2.84-2.84-1.3-2.84-2.84ZM750.2,29.97h4.64v18h-4.64v-18Z"/>
    <path class="cls-2" d="M775.79,29.97l-6.55,18c-1.87,5.18-4.93,7.45-9.5,7.2v-4.32c2.56.04,3.85-1.04,4.72-3.46l-7.38-17.42h5.08l4.68,12.09,4-12.09h4.97Z"/>
    <path class="cls-2" d="M776.32,38.97c0-5.36,4.21-9.5,9.5-9.5s9.54,4.14,9.54,9.5-4.25,9.5-9.54,9.5-9.5-4.14-9.5-9.5ZM790.72,38.97c0-2.92-2.12-4.97-4.9-4.97s-4.86,2.05-4.86,4.97,2.12,4.97,4.86,4.97,4.9-2.05,4.9-4.97Z"/>
    <path class="cls-2" d="M825.35,36.88v11.09h-4.64v-10.76c0-2.12-1.08-3.42-3.02-3.42-2.05,0-3.35,1.37-3.35,4.07v10.11h-4.64v-10.76c0-2.12-1.08-3.42-3.02-3.42s-3.38,1.37-3.38,4.07v10.11h-4.64v-18h4.64v1.91c1.01-1.51,2.7-2.41,5-2.41s3.89.94,4.9,2.59c1.12-1.62,2.92-2.59,5.36-2.59,4.1,0,6.8,2.92,6.8,7.42Z"/>
    <path class="cls-2" d="M828.76,24.97c0-1.55,1.3-2.88,2.84-2.88s2.88,1.33,2.88,2.88-1.29,2.84-2.88,2.84-2.84-1.3-2.84-2.84ZM829.3,29.97h4.64v18h-4.64v-18Z"/>
    <path class="cls-2" d="M865.4,31.23c0,4.72-3.74,8.46-8.6,8.46h-4.43v8.28h-4.97v-25.2h9.39c4.86,0,8.6,3.74,8.6,8.46ZM860.47,31.23c0-2.2-1.55-3.82-3.67-3.82h-4.43v7.63h4.43c2.12,0,3.67-1.66,3.67-3.82Z"/>
    <path class="cls-2" d="M878.14,29.61v5.18c-2.41-.29-5.47.79-5.47,4.57v8.6h-4.64v-18h4.64v3.1c.94-2.45,3.2-3.46,5.47-3.46Z"/>
    <path class="cls-2" d="M879.22,38.97c0-5.36,4.21-9.5,9.5-9.5s9.54,4.14,9.54,9.5-4.25,9.5-9.54,9.5-9.5-4.14-9.5-9.5ZM893.62,38.97c0-2.92-2.12-4.97-4.9-4.97s-4.86,2.05-4.86,4.97,2.12,4.97,4.86,4.97,4.9-2.05,4.9-4.97Z"/>
  </g>
  <g>
    <path class="cls-2" d="M203.38,81.67c-1.68,0-3.02-.39-4.01-1.18-1-.79-1.53-1.86-1.6-3.23h2.3c.07.82.42,1.42,1.05,1.81.64.39,1.38.59,2.25.59.95,0,1.74-.22,2.36-.66.62-.44.93-1.02.93-1.75,0-.65-.27-1.13-.82-1.45-.55-.32-1.22-.58-2.02-.8l-1.75-.48c-1.22-.33-2.18-.81-2.87-1.46-.69-.64-1.03-1.48-1.03-2.5,0-.86.23-1.62.7-2.26.46-.65,1.1-1.15,1.9-1.5.8-.36,1.7-.54,2.7-.54s1.93.18,2.7.54c.78.36,1.39.85,1.84,1.47.44.63.68,1.33.7,2.12h-2.23c-.07-.68-.39-1.21-.95-1.59-.56-.38-1.26-.56-2.11-.56-.9,0-1.62.21-2.16.62-.54.41-.8.94-.8,1.57,0,.47.14.86.43,1.15s.64.52,1.06.69c.42.17.82.31,1.2.41l1.46.38c.48.12.97.28,1.47.49.51.2.97.47,1.4.79.43.33.77.73,1.04,1.2.26.48.4,1.06.4,1.73,0,.84-.22,1.6-.65,2.26-.44.66-1.07,1.18-1.89,1.56-.83.38-1.82.57-3,.57Z"/>
    <path class="cls-2" d="M215.29,81.56c-1.14,0-2.07-.36-2.77-1.08-.7-.72-1.05-1.77-1.05-3.16v-7.12h2.21v6.85c0,.81.21,1.44.64,1.9s1,.68,1.73.68,1.37-.24,1.87-.73c.49-.49.74-1.17.74-2.06v-6.64h2.22v11.22h-2.12v-2.18c-.36.82-.83,1.41-1.42,1.77-.59.36-1.27.55-2.04.55Z"/>
    <path class="cls-2" d="M229.4,81.64c-.68,0-1.24-.12-1.67-.35-.43-.23-.76-.5-1.01-.81s-.43-.58-.57-.82h-.18v1.76h-2.15v-14.95h2.21v5.56h.12c.13-.23.31-.5.55-.81.24-.31.57-.58,1-.81.43-.23.99-.35,1.7-.35.9,0,1.7.23,2.4.68.71.46,1.26,1.11,1.67,1.98.41.86.61,1.9.61,3.12s-.2,2.24-.6,3.11c-.4.87-.96,1.54-1.66,2-.71.46-1.51.69-2.42.69ZM228.91,79.77c.64,0,1.18-.17,1.61-.52s.76-.82.98-1.42.33-1.26.33-2.01-.11-1.4-.33-1.98c-.22-.58-.54-1.05-.97-1.39-.43-.34-.97-.51-1.62-.51-.95,0-1.67.36-2.17,1.07-.5.71-.74,1.65-.74,2.82s.25,2.12.75,2.85c.5.73,1.22,1.09,2.16,1.09Z"/>
    <path class="cls-2" d="M240.56,81.65c-1.22,0-2.23-.26-3.03-.79-.8-.53-1.3-1.29-1.5-2.28l2.08-.43c.3,1.14,1.12,1.72,2.47,1.72.72,0,1.28-.15,1.7-.45s.63-.65.63-1.07c0-.71-.53-1.18-1.58-1.42l-1.89-.43c-2.06-.46-3.09-1.5-3.09-3.1,0-.67.19-1.25.56-1.76.37-.5.88-.89,1.54-1.17.65-.28,1.4-.42,2.25-.42,1.21,0,2.16.26,2.85.78s1.15,1.19,1.4,2.02l-1.98.43c-.14-.39-.38-.74-.73-1.04-.35-.3-.85-.45-1.52-.45-.61,0-1.12.14-1.53.41s-.61.62-.61,1.04c0,.38.14.68.41.91.27.23.71.42,1.33.56l1.81.4c2.04.46,3.06,1.47,3.06,3.03,0,.68-.2,1.29-.59,1.81-.39.53-.94.94-1.63,1.23s-1.5.45-2.41.45Z"/>
    <path class="cls-2" d="M252.32,81.65c-1.06,0-1.98-.24-2.76-.72-.78-.48-1.39-1.16-1.83-2.02-.44-.87-.65-1.88-.65-3.04s.22-2.18.65-3.06c.43-.87,1.04-1.55,1.83-2.03.78-.48,1.7-.72,2.76-.72,1.16,0,2.17.29,3.02.88.85.59,1.41,1.4,1.68,2.43l-2.1.5c-.15-.58-.45-1.05-.9-1.41-.44-.36-1.01-.54-1.69-.54s-1.24.18-1.68.53c-.45.35-.78.83-.99,1.43-.22.6-.33,1.26-.33,1.98s.11,1.37.33,1.96c.22.59.55,1.07.99,1.42.44.36,1,.53,1.68.53s1.27-.19,1.73-.56c.46-.37.76-.86.9-1.47l2.09.5c-.27,1.06-.84,1.89-1.69,2.49-.85.6-1.86.9-3.04.9Z"/>
    <path class="cls-2" d="M259.46,81.42v-11.22h2.14v1.81h.12c.2-.61.56-1.09,1.08-1.44.52-.35,1.11-.53,1.76-.53.14,0,.3,0,.49.02.18.01.33.03.45.04v2.11c-.08-.02-.23-.04-.46-.08-.23-.03-.46-.04-.69-.04-.77,0-1.41.24-1.91.71-.51.47-.76,1.08-.76,1.81v6.81h-2.21Z"/>
    <path class="cls-2" d="M268.69,68.49c-.38,0-.71-.13-.98-.38-.27-.25-.41-.56-.41-.92s.14-.68.41-.93c.27-.25.6-.38.98-.38s.71.13.98.38c.27.25.41.57.41.93s-.14.67-.41.92c-.27.25-.6.38-.98.38ZM267.57,81.42v-11.22h2.21v11.22h-2.21Z"/>
    <path class="cls-2" d="M278.32,81.64c-.68,0-1.24-.12-1.67-.35-.43-.23-.76-.5-1.01-.81s-.43-.58-.57-.82h-.18v1.76h-2.15v-14.95h2.21v5.56h.12c.13-.23.31-.5.55-.81.24-.31.57-.58,1-.81.43-.23.99-.35,1.7-.35.9,0,1.7.23,2.4.68.71.46,1.26,1.11,1.67,1.98.41.86.61,1.9.61,3.12s-.2,2.24-.6,3.11c-.4.87-.96,1.54-1.66,2-.71.46-1.51.69-2.42.69ZM277.83,79.77c.64,0,1.18-.17,1.61-.52s.76-.82.98-1.42.33-1.26.33-2.01-.11-1.4-.33-1.98c-.22-.58-.54-1.05-.97-1.39-.43-.34-.97-.51-1.62-.51-.95,0-1.67.36-2.17,1.07-.5.71-.74,1.65-.74,2.82s.25,2.12.75,2.85c.5.73,1.22,1.09,2.16,1.09Z"/>
    <path class="cls-2" d="M290.29,81.65c-1.1,0-2.06-.24-2.86-.71-.8-.48-1.42-1.14-1.85-2.01-.43-.86-.65-1.88-.65-3.04s.21-2.16.64-3.04c.42-.88,1.03-1.56,1.8-2.05.78-.49,1.69-.74,2.73-.74.85,0,1.66.19,2.42.57s1.39.98,1.87,1.81c.48.83.72,1.92.72,3.27v.78h-7.96c.04,1.08.35,1.91.92,2.48.58.57,1.32.86,2.24.86.62,0,1.15-.13,1.59-.4.44-.27.76-.66.96-1.18l2.08.49c-.27.88-.81,1.58-1.63,2.12-.82.54-1.82.8-3.02.8ZM287.16,74.84h5.76c-.08-.88-.36-1.6-.83-2.14s-1.13-.81-1.98-.81-1.58.29-2.09.87c-.51.58-.8,1.27-.86,2.08Z"/>
    <path class="cls-2" d="M307.72,81.65c-1.05,0-1.97-.24-2.75-.72-.79-.48-1.4-1.16-1.83-2.02-.44-.87-.65-1.88-.65-3.04s.22-2.18.65-3.06c.43-.87,1.05-1.55,1.83-2.03s1.7-.72,2.75-.72,1.98.24,2.76.72,1.4,1.16,1.83,2.03c.43.87.65,1.89.65,3.06s-.22,2.17-.65,3.04c-.44.87-1.05,1.54-1.83,2.02-.79.48-1.71.72-2.76.72ZM307.72,79.79c.68,0,1.25-.18,1.69-.54.44-.36.78-.83.99-1.42s.33-1.24.33-1.95-.11-1.37-.33-1.97-.55-1.08-.99-1.44c-.45-.36-1.01-.54-1.69-.54s-1.23.18-1.68.54c-.44.36-.77.84-.99,1.44-.22.6-.33,1.26-.33,1.97s.11,1.36.33,1.95c.22.59.55,1.07.99,1.42.44.36,1,.54,1.68.54Z"/>
    <path class="cls-2" d="M317.63,74.78v6.64h-2.21v-11.22h2.11v2.16c.36-.79.82-1.37,1.41-1.74.59-.37,1.27-.56,2.06-.56,1.14,0,2.07.36,2.76,1.08s1.05,1.77,1.05,3.16v7.12h-2.21v-6.85c0-.81-.21-1.44-.63-1.9-.42-.46-1-.68-1.74-.68s-1.37.24-1.87.73c-.5.49-.74,1.17-.74,2.06Z"/>
    <path class="cls-2" d="M333.44,81.42v-14.95h5.36c1.15,0,2.11.21,2.88.64.77.42,1.34,1,1.73,1.74.38.73.57,1.56.57,2.48s-.19,1.75-.58,2.48c-.38.73-.96,1.31-1.73,1.74-.77.42-1.73.64-2.89.64h-3.05v5.24h-2.29ZM335.72,74.25h2.83c1.1,0,1.89-.28,2.37-.83.48-.55.73-1.25.73-2.09s-.24-1.54-.73-2.08c-.49-.55-1.28-.82-2.39-.82h-2.81v5.82Z"/>
    <path class="cls-2" d="M349.5,81.67c-.72,0-1.36-.13-1.93-.4-.57-.26-1.03-.65-1.36-1.16-.33-.51-.5-1.13-.5-1.87,0-.64.12-1.16.37-1.57.25-.41.58-.74.99-.97.41-.24.88-.42,1.39-.54.51-.12,1.03-.21,1.56-.27.99-.11,1.71-.21,2.16-.3.45-.08.67-.32.67-.72v-.06c0-.62-.18-1.11-.55-1.45s-.9-.52-1.6-.52-1.31.16-1.74.48c-.42.32-.71.67-.86,1.05l-2.08-.54c.25-.67.62-1.21,1.09-1.62.48-.41,1.02-.71,1.63-.89.61-.19,1.25-.28,1.92-.28.45,0,.93.05,1.44.16.51.11.99.3,1.44.58.45.28.81.67,1.09,1.19.28.52.42,1.18.42,1.99v7.45h-2.14v-1.54h-.11c-.22.44-.6.85-1.14,1.22-.54.38-1.26.56-2.17.56ZM349.99,79.9c.6,0,1.11-.12,1.54-.36s.76-.55.99-.93c.23-.38.35-.79.35-1.23v-1.44c-.11.11-.34.2-.69.28s-.72.14-1.11.2c-.39.05-.7.09-.92.12-.62.09-1.16.26-1.6.51s-.67.66-.67,1.24c0,.54.2.94.6,1.21.4.27.9.41,1.52.41Z"/>
    <path class="cls-2" d="M362.83,70.2v1.8h-2.24v6.39c0,.45.1.78.29.99.19.21.5.32.94.32.12,0,.27-.01.46-.04.18-.03.34-.05.48-.08l.39,1.77c-.23.08-.49.14-.76.18-.27.04-.53.05-.79.05-1.02,0-1.81-.26-2.37-.79-.56-.52-.84-1.26-.84-2.21v-6.57h-1.64v-1.8h1.64v-2.67h2.21v2.67h2.24Z"/>
    <path class="cls-2" d="M365.03,81.42v-11.22h2.14v1.81h.12c.2-.61.56-1.09,1.08-1.44.52-.35,1.11-.53,1.76-.53.14,0,.3,0,.49.02.18.01.33.03.45.04v2.11c-.08-.02-.23-.04-.46-.08-.23-.03-.46-.04-.69-.04-.77,0-1.41.24-1.91.71-.51.47-.76,1.08-.76,1.81v6.81h-2.21Z"/>
    <path class="cls-2" d="M377.42,81.65c-1.1,0-2.06-.24-2.86-.71-.8-.48-1.42-1.14-1.85-2.01-.43-.86-.65-1.88-.65-3.04s.21-2.16.64-3.04c.42-.88,1.03-1.56,1.8-2.05.78-.49,1.69-.74,2.73-.74.85,0,1.66.19,2.42.57s1.39.98,1.87,1.81c.48.83.72,1.92.72,3.27v.78h-7.96c.04,1.08.35,1.91.92,2.48.58.57,1.32.86,2.24.86.62,0,1.15-.13,1.59-.4.44-.27.76-.66.96-1.18l2.08.49c-.27.88-.81,1.58-1.63,2.12-.82.54-1.82.8-3.02.8ZM374.29,74.84h5.76c-.08-.88-.36-1.6-.83-2.14s-1.13-.81-1.98-.81-1.58.29-2.09.87c-.51.58-.8,1.27-.86,2.08Z"/>
    <path class="cls-2" d="M389.37,81.65c-1.05,0-1.97-.24-2.75-.72-.79-.48-1.4-1.16-1.83-2.02-.44-.87-.65-1.88-.65-3.04s.22-2.18.65-3.06c.43-.87,1.05-1.55,1.83-2.03s1.7-.72,2.75-.72,1.98.24,2.76.72,1.4,1.16,1.83,2.03c.43.87.65,1.89.65,3.06s-.22,2.17-.65,3.04c-.44.87-1.05,1.54-1.83,2.02-.79.48-1.71.72-2.76.72ZM389.37,79.79c.68,0,1.25-.18,1.69-.54.44-.36.78-.83.99-1.42s.33-1.24.33-1.95-.11-1.37-.33-1.97-.55-1.08-.99-1.44c-.45-.36-1.01-.54-1.69-.54s-1.23.18-1.68.54c-.44.36-.77.84-.99,1.44-.22.6-.33,1.26-.33,1.97s.11,1.36.33,1.95c.22.59.55,1.07.99,1.42.44.36,1,.54,1.68.54Z"/>
    <path class="cls-2" d="M399.28,74.78v6.64h-2.21v-11.22h2.11v2.16c.36-.79.82-1.37,1.41-1.74.59-.37,1.27-.56,2.06-.56,1.14,0,2.07.36,2.76,1.08s1.05,1.77,1.05,3.16v7.12h-2.21v-6.85c0-.81-.21-1.44-.63-1.9-.42-.46-1-.68-1.74-.68s-1.37.24-1.87.73c-.5.49-.74,1.17-.74,2.06Z"/>
    <path class="cls-2" d="M415.46,74.39c0-1.09.11-2.23.33-3.43s.53-2.35.92-3.45c.39-1.1.84-2.07,1.34-2.89h2.1c-.51,1.05-.95,2.14-1.31,3.27-.36,1.13-.64,2.25-.84,3.36-.19,1.11-.29,2.16-.29,3.14,0,1.33.19,2.68.58,4.08.39,1.39,1.01,3,1.86,4.81h-2.1c-.86-1.44-1.5-2.91-1.94-4.42-.44-1.51-.65-3-.65-4.48Z"/>
    <path class="cls-2" d="M427.08,83.55v-1.9c-1.51-.1-2.7-.54-3.58-1.3-.88-.77-1.36-1.8-1.42-3.08h2.3c.06.72.34,1.28.85,1.67.51.39,1.13.62,1.86.7v-4.91l-.7-.2c-1.22-.33-2.18-.81-2.87-1.46-.69-.64-1.03-1.48-1.03-2.5,0-.8.2-1.5.6-2.11.4-.61.94-1.1,1.63-1.47.69-.38,1.48-.61,2.37-.69v-1.96h1.2v1.95c.93.06,1.75.27,2.45.64.7.37,1.25.85,1.66,1.45s.61,1.27.63,2.02h-2.23c-.07-.61-.33-1.1-.78-1.46-.45-.36-1.03-.59-1.73-.67v4.63l.63.17c.48.12.97.28,1.47.49.51.2.97.47,1.4.79.43.33.77.73,1.04,1.2.26.48.4,1.06.4,1.73,0,1.2-.43,2.2-1.29,3.01-.86.81-2.08,1.26-3.65,1.36v1.9h-1.2ZM427.08,72.58v-4.29c-.72.1-1.28.34-1.69.73-.41.39-.62.86-.62,1.42,0,.42.12.77.35,1.05.23.28.53.5.88.67s.71.31,1.07.42ZM428.28,79.64c.79-.09,1.43-.35,1.93-.78.5-.42.75-.96.75-1.6s-.26-1.1-.77-1.42-1.15-.58-1.91-.79v4.59Z"/>
    <path class="cls-2" d="M441.16,66.47v14.95h-2.27v-12.88h-.1l-3.55,2.59v-2.3l3.27-2.37h2.65Z"/>
    <path class="cls-2" d="M449.45,81.62c-1.74,0-3.09-.67-4.05-2.01-.96-1.34-1.45-3.22-1.45-5.66s.48-4.31,1.45-5.66,2.32-2.03,4.05-2.03,3.08.68,4.05,2.03,1.45,3.24,1.45,5.66-.48,4.31-1.44,5.66c-.96,1.34-2.31,2.01-4.06,2.01ZM449.45,79.67c1.04,0,1.83-.5,2.39-1.5.56-1,.84-2.4.84-4.21s-.28-3.23-.84-4.23c-.56-1-1.36-1.51-2.39-1.51s-1.84.5-2.4,1.51-.84,2.42-.84,4.23.28,3.22.84,4.21c.56,1,1.36,1.5,2.4,1.5Z"/>
    <path class="cls-2" d="M469.17,81.65c-1.2,0-2.25-.23-3.15-.69-.89-.46-1.59-1.09-2.08-1.9s-.74-1.74-.74-2.78v-9.82h2.29v9.62c0,1.01.33,1.84.99,2.5.66.66,1.55.98,2.68.98s2.01-.33,2.66-.98c.65-.66.98-1.49.98-2.5v-9.62h2.3v9.82c0,1.04-.25,1.97-.74,2.78s-1.19,1.44-2.08,1.9c-.89.46-1.93.69-3.12.69Z"/>
    <path class="cls-2" d="M483.45,81.67c-1.68,0-3.02-.39-4.01-1.18-1-.79-1.53-1.86-1.6-3.23h2.3c.07.82.42,1.42,1.05,1.81.64.39,1.38.59,2.25.59.95,0,1.74-.22,2.36-.66.62-.44.93-1.02.93-1.75,0-.65-.27-1.13-.82-1.45-.55-.32-1.22-.58-2.02-.8l-1.75-.48c-1.22-.33-2.18-.81-2.87-1.46-.69-.64-1.03-1.48-1.03-2.5,0-.86.23-1.62.7-2.26.46-.65,1.1-1.15,1.9-1.5.8-.36,1.7-.54,2.7-.54s1.93.18,2.7.54c.78.36,1.39.85,1.84,1.47.44.63.68,1.33.7,2.12h-2.23c-.07-.68-.39-1.21-.95-1.59-.56-.38-1.26-.56-2.11-.56-.9,0-1.62.21-2.16.62-.54.41-.8.94-.8,1.57,0,.47.14.86.43,1.15s.64.52,1.06.69c.42.17.82.31,1.2.41l1.46.38c.48.12.97.28,1.47.49.51.2.97.47,1.4.79.43.33.77.73,1.04,1.2.26.48.4,1.06.4,1.73,0,.84-.22,1.6-.65,2.26-.44.66-1.07,1.18-1.89,1.56-.83.38-1.82.57-3,.57Z"/>
    <path class="cls-2" d="M496.57,81.42h-4.87v-14.95h5.01c1.47,0,2.73.3,3.78.9,1.05.6,1.86,1.45,2.42,2.56.56,1.11.84,2.44.84,3.99s-.28,2.9-.85,4.01c-.57,1.12-1.38,1.98-2.46,2.58-1.07.6-2.37.9-3.88.9ZM493.99,79.41h2.45c1.69,0,2.96-.47,3.8-1.42.84-.95,1.26-2.3,1.26-4.07s-.42-3.11-1.25-4.04c-.83-.94-2.06-1.4-3.7-1.4h-2.57v10.94Z"/>
    <path class="cls-2" d="M516.56,81.65c-1.05,0-1.97-.24-2.75-.72-.79-.48-1.4-1.16-1.83-2.02-.43-.87-.65-1.88-.65-3.04s.22-2.18.65-3.06c.44-.87,1.05-1.55,1.83-2.03s1.7-.72,2.75-.72,1.98.24,2.76.72,1.4,1.16,1.83,2.03c.44.87.65,1.89.65,3.06s-.22,2.17-.65,3.04c-.43.87-1.04,1.54-1.83,2.02-.79.48-1.71.72-2.76.72ZM516.56,79.79c.68,0,1.25-.18,1.69-.54.45-.36.78-.83.99-1.42.22-.59.33-1.24.33-1.95s-.11-1.37-.33-1.97c-.22-.6-.55-1.08-.99-1.44-.44-.36-1.01-.54-1.69-.54s-1.23.18-1.68.54c-.44.36-.77.84-.99,1.44-.22.6-.33,1.26-.33,1.97s.11,1.36.33,1.95c.22.59.55,1.07.99,1.42.44.36,1,.54,1.68.54Z"/>
    <path class="cls-2" d="M524.26,81.42v-11.22h2.14v1.81h.12c.2-.61.56-1.09,1.08-1.44s1.11-.53,1.76-.53c.14,0,.3,0,.49.02.18.01.33.03.45.04v2.11c-.08-.02-.23-.04-.46-.08s-.46-.04-.69-.04c-.77,0-1.41.24-1.91.71-.51.47-.76,1.08-.76,1.81v6.81h-2.21Z"/>
    <path class="cls-2" d="M539.9,74.78v6.64h-2.21v-14.95h2.19v5.75c.35-.74.82-1.29,1.38-1.64.57-.35,1.24-.52,2.01-.52,1.14,0,2.07.36,2.77,1.08.7.72,1.05,1.77,1.05,3.16v7.12h-2.22v-6.85c0-.81-.21-1.44-.63-1.9-.42-.46-1-.68-1.74-.68s-1.37.24-1.87.73c-.5.49-.74,1.17-.74,2.06Z"/>
    <path class="cls-2" d="M551.17,68.49c-.38,0-.71-.13-.98-.38-.27-.25-.41-.56-.41-.92s.14-.68.41-.93c.27-.25.6-.38.98-.38s.71.13.98.38c.27.25.41.57.41.93s-.14.67-.41.92c-.27.25-.6.38-.98.38ZM550.05,81.42v-11.22h2.21v11.22h-2.21Z"/>
    <path class="cls-2" d="M559.93,85.86c-1.3,0-2.34-.24-3.12-.71-.78-.48-1.33-1.05-1.65-1.73l1.85-.87c.13.21.31.44.54.68.22.24.52.44.9.61s.87.25,1.47.25c.85,0,1.54-.2,2.08-.61.54-.41.8-1.04.8-1.9v-2.19h-.19c-.13.25-.32.52-.56.8-.24.29-.57.54-.99.75-.42.21-.98.32-1.66.32-.88,0-1.68-.21-2.38-.62s-1.27-1.03-1.68-1.84c-.42-.81-.62-1.82-.62-3.02s.21-2.21.62-3.07c.41-.85.97-1.51,1.68-1.96s1.52-.68,2.42-.68c.69,0,1.25.12,1.68.35.43.23.77.5,1.01.81.24.31.43.58.56.81h.16v-1.83h2.16v11.38c0,.98-.22,1.79-.67,2.42s-1.05,1.1-1.82,1.4c-.76.3-1.62.46-2.58.46ZM559.91,79.41c.94,0,1.65-.32,2.15-.97.5-.65.75-1.55.75-2.7s-.25-2.04-.74-2.75c-.49-.71-1.21-1.06-2.16-1.06-.65,0-1.19.17-1.63.51-.44.34-.77.79-.98,1.36-.22.57-.33,1.22-.33,1.93,0,1.1.25,1.98.75,2.66.5.68,1.23,1.01,2.19,1.01Z"/>
    <path class="cls-2" d="M570.17,74.78v6.64h-2.21v-14.95h2.19v5.75c.35-.74.82-1.29,1.38-1.64.57-.35,1.24-.52,2.01-.52,1.14,0,2.07.36,2.77,1.08.7.72,1.05,1.77,1.05,3.16v7.12h-2.22v-6.85c0-.81-.21-1.44-.63-1.9-.42-.46-1-.68-1.74-.68s-1.37.24-1.87.73c-.5.49-.74,1.17-.74,2.06Z"/>
    <path class="cls-2" d="M585.16,81.65c-1.1,0-2.06-.24-2.86-.71-.8-.48-1.42-1.14-1.85-2.01-.43-.86-.65-1.88-.65-3.04s.21-2.16.64-3.04c.42-.88,1.03-1.56,1.8-2.05.78-.49,1.69-.74,2.73-.74.85,0,1.66.19,2.42.57.77.38,1.39.98,1.87,1.81s.72,1.92.72,3.27v.78h-7.96c.04,1.08.35,1.91.92,2.48.58.57,1.32.86,2.24.86.62,0,1.15-.13,1.59-.4.45-.27.76-.66.96-1.18l2.08.49c-.27.88-.81,1.58-1.63,2.12s-1.82.8-3.02.8ZM582.03,74.84h5.76c-.08-.88-.36-1.6-.83-2.14s-1.13-.81-1.98-.81-1.58.29-2.09.87c-.51.58-.8,1.27-.86,2.08Z"/>
    <path class="cls-2" d="M592.4,81.42v-11.22h2.14v1.81h.12c.2-.61.56-1.09,1.08-1.44s1.11-.53,1.76-.53c.14,0,.3,0,.49.02.18.01.33.03.45.04v2.11c-.08-.02-.23-.04-.46-.08s-.46-.04-.69-.04c-.77,0-1.41.24-1.91.71-.51.47-.76,1.08-.76,1.81v6.81h-2.21Z"/>
    <path class="cls-2" d="M599.73,84.22c.58-1.24,1.05-2.37,1.41-3.39.36-1.02.62-1.98.79-2.87.17-.89.25-1.77.25-2.63,0-.98-.1-2.03-.3-3.14s-.48-2.23-.84-3.36c-.37-1.13-.8-2.22-1.31-3.27h2.11c.5.82.95,1.78,1.33,2.89.39,1.11.69,2.26.92,3.46.22,1.2.34,2.34.34,3.43,0,1.5-.22,3-.67,4.51-.45,1.51-1.09,2.97-1.92,4.39h-2.11Z"/>
    <path class="cls-2" d="M614.52,68.49c-.38,0-.71-.13-.98-.38-.27-.25-.41-.56-.41-.92s.14-.68.41-.93c.27-.25.6-.38.98-.38s.71.13.98.38c.27.25.41.57.41.93s-.14.67-.41.92c-.27.25-.6.38-.98.38ZM613.4,81.42v-11.22h2.21v11.22h-2.21Z"/>
    <path class="cls-2" d="M620.79,74.78v6.64h-2.21v-11.22h2.11v2.16c.36-.79.82-1.37,1.41-1.74.58-.37,1.27-.56,2.06-.56,1.14,0,2.07.36,2.76,1.08.7.72,1.05,1.77,1.05,3.16v7.12h-2.21v-6.85c0-.81-.21-1.44-.63-1.9-.42-.46-1-.68-1.74-.68s-1.37.24-1.87.73c-.5.49-.74,1.17-.74,2.06Z"/>
    <path class="cls-2" d="M641.14,81.65c-1.05,0-1.97-.24-2.75-.72-.79-.48-1.4-1.16-1.83-2.02-.43-.87-.65-1.88-.65-3.04s.22-2.18.65-3.06c.44-.87,1.05-1.55,1.83-2.03s1.7-.72,2.75-.72,1.98.24,2.76.72,1.4,1.16,1.83,2.03c.44.87.65,1.89.65,3.06s-.22,2.17-.65,3.04c-.43.87-1.04,1.54-1.83,2.02-.79.48-1.71.72-2.76.72ZM641.14,79.79c.68,0,1.25-.18,1.69-.54.45-.36.78-.83.99-1.42.22-.59.33-1.24.33-1.95s-.11-1.37-.33-1.97c-.22-.6-.55-1.08-.99-1.44-.44-.36-1.01-.54-1.69-.54s-1.23.18-1.68.54c-.44.36-.77.84-.99,1.44-.22.6-.33,1.26-.33,1.97s.11,1.36.33,1.95c.22.59.55,1.07.99,1.42.44.36,1,.54,1.68.54Z"/>
    <path class="cls-2" d="M648.84,81.42v-11.22h2.14v1.81h.12c.2-.61.56-1.09,1.08-1.44s1.11-.53,1.76-.53c.14,0,.3,0,.49.02.18.01.33.03.45.04v2.11c-.08-.02-.23-.04-.46-.08s-.46-.04-.69-.04c-.77,0-1.41.24-1.91.71-.51.47-.76,1.08-.76,1.81v6.81h-2.21Z"/>
    <path class="cls-2" d="M660.57,81.64c-.91,0-1.72-.23-2.42-.69s-1.26-1.13-1.67-2c-.4-.87-.61-1.91-.61-3.11s.2-2.26.61-3.12c.41-.86.97-1.52,1.67-1.98.71-.46,1.51-.68,2.41-.68.7,0,1.26.12,1.69.35.43.23.76.5,1,.81.24.31.42.58.55.81h.12v-5.56h2.21v14.95h-2.15v-1.76h-.18c-.13.24-.32.51-.57.82s-.58.58-1.01.81c-.43.23-.98.35-1.66.35ZM661.05,79.77c.94,0,1.66-.36,2.16-1.09.5-.73.75-1.68.75-2.85s-.25-2.1-.74-2.82c-.5-.71-1.22-1.07-2.17-1.07-.65,0-1.19.17-1.62.51-.43.34-.76.8-.97,1.39-.22.59-.33,1.25-.33,1.98s.11,1.41.33,2.01.55,1.07.98,1.42c.43.35.97.52,1.61.52Z"/>
    <path class="cls-2" d="M673.94,81.65c-1.1,0-2.06-.24-2.86-.71-.8-.48-1.42-1.14-1.85-2.01-.43-.86-.65-1.88-.65-3.04s.21-2.16.64-3.04c.42-.88,1.03-1.56,1.8-2.05.78-.49,1.69-.74,2.73-.74.85,0,1.66.19,2.42.57.77.38,1.39.98,1.87,1.81s.72,1.92.72,3.27v.78h-7.96c.04,1.08.35,1.91.92,2.48.58.57,1.32.86,2.24.86.62,0,1.15-.13,1.59-.4.45-.27.76-.66.96-1.18l2.08.49c-.27.88-.81,1.58-1.63,2.12s-1.82.8-3.02.8ZM670.81,74.84h5.76c-.08-.88-.36-1.6-.83-2.14s-1.13-.81-1.98-.81-1.58.29-2.09.87c-.51.58-.8,1.27-.86,2.08Z"/>
    <path class="cls-2" d="M681.17,81.42v-11.22h2.14v1.81h.12c.2-.61.56-1.09,1.08-1.44s1.11-.53,1.76-.53c.14,0,.3,0,.49.02.18.01.33.03.45.04v2.11c-.08-.02-.23-.04-.46-.08s-.46-.04-.69-.04c-.77,0-1.41.24-1.91.71-.51.47-.76,1.08-.76,1.81v6.81h-2.21Z"/>
    <path class="cls-2" d="M699.4,70.2v1.8h-2.24v6.39c0,.45.1.78.29.99s.5.32.94.32c.12,0,.27-.01.46-.04.18-.03.34-.05.48-.08l.39,1.77c-.23.08-.49.14-.76.18-.27.04-.53.05-.79.05-1.02,0-1.81-.26-2.37-.79-.56-.52-.84-1.26-.84-2.21v-6.57h-1.64v-1.8h1.64v-2.67h2.21v2.67h2.24Z"/>
    <path class="cls-2" d="M706.11,81.65c-1.05,0-1.97-.24-2.75-.72-.79-.48-1.4-1.16-1.83-2.02-.43-.87-.65-1.88-.65-3.04s.22-2.18.65-3.06c.44-.87,1.05-1.55,1.83-2.03s1.7-.72,2.75-.72,1.98.24,2.76.72,1.4,1.16,1.83,2.03c.44.87.65,1.89.65,3.06s-.22,2.17-.65,3.04c-.43.87-1.04,1.54-1.83,2.02-.79.48-1.71.72-2.76.72ZM706.11,79.79c.68,0,1.25-.18,1.69-.54.45-.36.78-.83.99-1.42.22-.59.33-1.24.33-1.95s-.11-1.37-.33-1.97c-.22-.6-.55-1.08-.99-1.44-.44-.36-1.01-.54-1.69-.54s-1.23.18-1.68.54c-.44.36-.77.84-.99,1.44-.22.6-.33,1.26-.33,1.97s.11,1.36.33,1.95c.22.59.55,1.07.99,1.42.44.36,1,.54,1.68.54Z"/>
    <path class="cls-2" d="M723.31,81.65c-1.22,0-2.23-.26-3.03-.79-.8-.53-1.3-1.29-1.5-2.28l2.08-.43c.3,1.14,1.12,1.72,2.47,1.72.72,0,1.28-.15,1.7-.45s.63-.65.63-1.07c0-.71-.53-1.18-1.58-1.42l-1.89-.43c-2.06-.46-3.09-1.5-3.09-3.1,0-.67.19-1.25.56-1.76s.88-.89,1.54-1.17c.65-.28,1.4-.42,2.25-.42,1.21,0,2.16.26,2.85.78s1.15,1.19,1.39,2.02l-1.98.43c-.14-.39-.38-.74-.73-1.04-.35-.3-.85-.45-1.52-.45-.61,0-1.12.14-1.53.41s-.61.62-.61,1.04c0,.38.14.68.41.91.27.23.71.42,1.33.56l1.81.4c2.04.46,3.06,1.47,3.06,3.03,0,.68-.2,1.29-.59,1.81s-.94.94-1.63,1.23c-.7.3-1.5.45-2.41.45Z"/>
    <path class="cls-2" d="M735.2,81.65c-1.1,0-2.06-.24-2.86-.71-.8-.48-1.42-1.14-1.85-2.01-.43-.86-.65-1.88-.65-3.04s.21-2.16.64-3.04c.42-.88,1.03-1.56,1.8-2.05.78-.49,1.69-.74,2.73-.74.85,0,1.66.19,2.42.57.77.38,1.39.98,1.87,1.81s.72,1.92.72,3.27v.78h-7.96c.04,1.08.35,1.91.92,2.48.58.57,1.32.86,2.24.86.62,0,1.15-.13,1.59-.4.45-.27.76-.66.96-1.18l2.08.49c-.27.88-.81,1.58-1.63,2.12s-1.82.8-3.02.8ZM732.06,74.84h5.76c-.08-.88-.36-1.6-.83-2.14s-1.13-.81-1.98-.81-1.58.29-2.09.87c-.51.58-.8,1.27-.86,2.08Z"/>
    <path class="cls-2" d="M747.27,81.65c-1.1,0-2.06-.24-2.86-.71-.8-.48-1.42-1.14-1.85-2.01-.43-.86-.65-1.88-.65-3.04s.21-2.16.64-3.04c.42-.88,1.03-1.56,1.8-2.05.78-.49,1.69-.74,2.73-.74.85,0,1.66.19,2.42.57.77.38,1.39.98,1.87,1.81s.72,1.92.72,3.27v.78h-7.96c.04,1.08.35,1.91.92,2.48.58.57,1.32.86,2.24.86.62,0,1.15-.13,1.59-.4.45-.27.76-.66.96-1.18l2.08.49c-.27.88-.81,1.58-1.63,2.12s-1.82.8-3.02.8ZM744.14,74.84h5.76c-.08-.88-.36-1.6-.83-2.14s-1.13-.81-1.98-.81-1.58.29-2.09.87c-.51.58-.8,1.27-.86,2.08Z"/>
    <path class="cls-2" d="M764.78,70.2v1.8h-2.24v6.39c0,.45.1.78.29.99s.5.32.94.32c.12,0,.27-.01.46-.04.18-.03.34-.05.48-.08l.39,1.77c-.23.08-.49.14-.76.18-.27.04-.53.05-.79.05-1.02,0-1.81-.26-2.37-.79-.56-.52-.84-1.26-.84-2.21v-6.57h-1.64v-1.8h1.64v-2.67h2.21v2.67h2.24Z"/>
    <path class="cls-2" d="M769.21,74.78v6.64h-2.21v-14.95h2.19v5.75c.35-.74.82-1.29,1.38-1.64.57-.35,1.24-.52,2.01-.52,1.14,0,2.07.36,2.77,1.08.7.72,1.05,1.77,1.05,3.16v7.12h-2.22v-6.85c0-.81-.21-1.44-.63-1.9-.42-.46-1-.68-1.74-.68s-1.37.24-1.87.73c-.5.49-.74,1.17-.74,2.06Z"/>
    <path class="cls-2" d="M780.48,68.49c-.38,0-.71-.13-.98-.38-.27-.25-.41-.56-.41-.92s.14-.68.41-.93c.27-.25.6-.38.98-.38s.71.13.98.38c.27.25.41.57.41.93s-.14.67-.41.92c-.27.25-.6.38-.98.38ZM779.36,81.42v-11.22h2.21v11.22h-2.21Z"/>
    <path class="cls-2" d="M788.56,81.65c-1.22,0-2.23-.26-3.03-.79-.8-.53-1.3-1.29-1.5-2.28l2.08-.43c.3,1.14,1.12,1.72,2.47,1.72.72,0,1.28-.15,1.7-.45s.63-.65.63-1.07c0-.71-.53-1.18-1.58-1.42l-1.89-.43c-2.06-.46-3.09-1.5-3.09-3.1,0-.67.19-1.25.56-1.76s.88-.89,1.54-1.17c.65-.28,1.4-.42,2.25-.42,1.21,0,2.16.26,2.85.78s1.15,1.19,1.39,2.02l-1.98.43c-.14-.39-.38-.74-.73-1.04-.35-.3-.85-.45-1.52-.45-.61,0-1.12.14-1.53.41s-.61.62-.61,1.04c0,.38.14.68.41.91.27.23.71.42,1.33.56l1.81.4c2.04.46,3.06,1.47,3.06,3.03,0,.68-.2,1.29-.59,1.81s-.94.94-1.63,1.23c-.7.3-1.5.45-2.41.45Z"/>
    <path class="cls-2" d="M801.09,81.42v-11.22h2.1l.05,2.1c.29-.78.72-1.35,1.29-1.73.58-.37,1.2-.56,1.87-.56.73,0,1.33.21,1.82.62s.83.99,1.05,1.74c.28-.76.74-1.34,1.39-1.75s1.37-.61,2.16-.61c.66,0,1.26.14,1.8.43.54.29.96.72,1.28,1.28.32.57.48,1.28.48,2.13v7.57h-2.21v-7.35c0-.75-.21-1.29-.63-1.63-.42-.33-.91-.5-1.48-.5-.7,0-1.24.21-1.64.64-.4.43-.6.98-.6,1.65v7.19h-2.18v-7.49c0-.6-.19-1.08-.58-1.45s-.87-.54-1.47-.54-1.15.21-1.61.64c-.46.42-.69,1.04-.69,1.86v6.97h-2.21Z"/>
    <path class="cls-2" d="M824.06,81.65c-1.05,0-1.97-.24-2.75-.72-.79-.48-1.4-1.16-1.83-2.02-.43-.87-.65-1.88-.65-3.04s.22-2.18.65-3.06c.44-.87,1.05-1.55,1.83-2.03s1.7-.72,2.75-.72,1.98.24,2.76.72,1.4,1.16,1.83,2.03c.44.87.65,1.89.65,3.06s-.22,2.17-.65,3.04c-.43.87-1.04,1.54-1.83,2.02-.79.48-1.71.72-2.76.72ZM824.06,79.79c.68,0,1.25-.18,1.69-.54.45-.36.78-.83.99-1.42.22-.59.33-1.24.33-1.95s-.11-1.37-.33-1.97c-.22-.6-.55-1.08-.99-1.44-.44-.36-1.01-.54-1.69-.54s-1.23.18-1.68.54c-.44.36-.77.84-.99,1.44-.22.6-.33,1.26-.33,1.97s.11,1.36.33,1.95c.22.59.55,1.07.99,1.42.44.36,1,.54,1.68.54Z"/>
    <path class="cls-2" d="M835.93,81.64c-.91,0-1.72-.23-2.42-.69s-1.26-1.13-1.67-2c-.4-.87-.61-1.91-.61-3.11s.2-2.26.61-3.12c.41-.86.97-1.52,1.67-1.98.71-.46,1.51-.68,2.41-.68.7,0,1.26.12,1.69.35.43.23.76.5,1,.81.24.31.42.58.55.81h.12v-5.56h2.21v14.95h-2.15v-1.76h-.18c-.13.24-.32.51-.57.82s-.58.58-1.01.81c-.43.23-.98.35-1.66.35ZM836.41,79.77c.94,0,1.66-.36,2.16-1.09.5-.73.75-1.68.75-2.85s-.25-2.1-.74-2.82c-.5-.71-1.22-1.07-2.17-1.07-.65,0-1.19.17-1.62.51-.43.34-.76.8-.97,1.39-.22.59-.33,1.25-.33,1.98s.11,1.41.33,2.01.55,1.07.98,1.42c.43.35.97.52,1.61.52Z"/>
    <path class="cls-2" d="M848.28,81.56c-1.14,0-2.07-.36-2.77-1.08-.7-.72-1.05-1.77-1.05-3.16v-7.12h2.21v6.85c0,.81.21,1.44.64,1.9s1,.68,1.73.68,1.37-.24,1.87-.73.74-1.17.74-2.06v-6.64h2.22v11.22h-2.12v-2.18c-.37.82-.83,1.41-1.42,1.77-.58.36-1.27.55-2.04.55Z"/>
    <path class="cls-2" d="M859.03,66.47v14.95h-2.21v-14.95h2.21Z"/>
    <path class="cls-2" d="M866.84,81.65c-1.1,0-2.06-.24-2.86-.71-.8-.48-1.42-1.14-1.85-2.01-.43-.86-.65-1.88-.65-3.04s.21-2.16.64-3.04c.42-.88,1.03-1.56,1.8-2.05.78-.49,1.69-.74,2.73-.74.85,0,1.66.19,2.42.57.77.38,1.39.98,1.87,1.81s.72,1.92.72,3.27v.78h-7.96c.04,1.08.35,1.91.92,2.48.58.57,1.32.86,2.24.86.62,0,1.15-.13,1.59-.4.45-.27.76-.66.96-1.18l2.08.49c-.27.88-.81,1.58-1.63,2.12s-1.82.8-3.02.8ZM863.71,74.84h5.76c-.08-.88-.36-1.6-.83-2.14s-1.13-.81-1.98-.81-1.58.29-2.09.87c-.51.58-.8,1.27-.86,2.08Z"/>
    <path class="cls-2" d="M875.71,81.57c-.42,0-.77-.14-1.05-.43-.29-.28-.43-.63-.43-1.05s.14-.77.43-1.05c.29-.29.64-.43,1.05-.43s.76.14,1.05.43c.28.29.43.64.43,1.05s-.14.76-.43,1.05c-.28.29-.63.43-1.05.43Z"/>
  </g>
  <path class="cls-2" d="M121.16,40.39c-.01-8.1-6.32-14.73-13.71-17.12-9.19-2.97-21.3-2.54-30.07,1.6-10.63,5.02-13.97,16.01-14.1,26.97-.1,9.01.8,32.74,14.18,32.91,9.95.13,11.43-12.69,16.03-18.86,3.27-4.39,7.49-5.63,12.68-6.92,8.92-2.21,15-9.25,14.99-18.57Z"/>
</svg>