<?xml version="1.0" encoding="UTF-8"?>
<svg id="Layer_1" data-name="Layer 1" xmlns="http://www.w3.org/2000/svg" xmlns:xlink="http://www.w3.org/1999/xlink" viewBox="0 0 1024 256">
  <defs>
    <style>
      .cls-1 {
        fill: #fff;
      }

      .cls-2 {
        fill: #383838;
      }

      .cls-3 {
        fill: #c4c4c4;
      }

      .cls-4 {
        fill: #454545;
      }

      .cls-5 {
        fill: #202020;
      }

      .cls-6 {
        fill: url(#linear-gradient);
      }
    </style>
    <linearGradient id="linear-gradient" x1="9.11" y1="128" x2="801.1" y2="128" gradientUnits="userSpaceOnUse">
      <stop offset="0" stop-color="#005eb0"/>
      <stop offset=".08" stop-color="#007fbc"/>
      <stop offset=".22" stop-color="#00b5d1"/>
      <stop offset=".34" stop-color="#00dde1"/>
      <stop offset=".44" stop-color="#00f6ea"/>
      <stop offset=".5" stop-color="#0fe"/>
      <stop offset=".56" stop-color="#00f6ea"/>
      <stop offset=".66" stop-color="#00dde1"/>
      <stop offset=".78" stop-color="#00b5d1"/>
      <stop offset=".92" stop-color="#007fbc"/>
      <stop offset="1" stop-color="#005eb0"/>
    </linearGradient>
  </defs>
  <path class="cls-6" d="M775.01,11.16H9.11v233.68h765.9c14.41,0,26.09-14.83,26.09-33.13V44.29c0-18.3-11.68-33.13-26.09-33.13Z"/>
  <path class="cls-2" d="M981.76,11.16h-200.55v233.68h200.55c18.3,0,33.13-14.83,33.13-33.13V44.29c0-18.3-14.83-33.13-33.13-33.13Z"/>
  <path class="cls-5" d="M981.76,26.16c10,0,18.13,8.13,18.13,18.13v167.42c0,10-8.13,18.13-18.13,18.13H24.11V26.16h957.65M981.76,11.16H9.11v233.68h972.65c18.3,0,33.13-14.83,33.13-33.13V44.29c0-18.3-14.83-33.13-33.13-33.13h0Z"/>
  <g>
    <path class="cls-3" d="M822.98,181.84l8.15-8.15v-17.95l54.67-54.67-8.97-8.97,15.12-15.12,8.97,8.97,20.9-20.9c4.41-4.41,10.29-6.85,16.53-6.85s12.11,2.43,16.53,6.85c9.11,9.12,9.11,23.95,0,33.06l-20.9,20.9,8.97,8.97-15.12,15.12-8.97-8.97-54.67,54.67h-17.95l-8.15,8.14-15.12-15.12ZM858.65,147.95h26.69l23.66-23.66-13.34-13.34-37.01,37.01Z"/>
    <path class="cls-4" d="M938.34,60.21c5.71,0,11.08,2.22,15.12,6.26,4.04,4.04,6.27,9.41,6.27,15.12s-2.23,11.08-6.27,15.12l-19.49,19.49-2.83,2.83,2.83,2.83,6.15,6.14-12.29,12.29-6.14-6.14-2.83-2.83-2.83,2.83-52.67,52.67h-17.95l-1.17,1.17-6.14,6.14-12.29-12.29,6.14-6.15,1.17-1.17v-17.95l52.67-52.67,2.83-2.83-2.83-2.83-6.14-6.14,12.29-12.29,6.15,6.14,2.83,2.83,2.83-2.83,19.49-19.49c4.04-4.04,9.4-6.26,15.12-6.26M853.82,149.95h32.34l1.17-1.17,21.66-21.66,2.83-2.83-2.83-2.83-10.52-10.52-2.83-2.83-2.83,2.83-32.18,32.18-6.83,6.83M938.34,56.21c-6.5,0-12.99,2.48-17.95,7.43l-19.49,19.49-8.97-8.97-17.95,17.95,8.97,8.97-53.84,53.84v17.95l-8.97,8.97,17.95,17.95,8.97-8.97h17.95l53.84-53.84,8.97,8.97,17.95-17.95-8.97-8.97,19.49-19.49c9.92-9.92,9.92-25.98,0-35.89-4.96-4.95-11.45-7.43-17.95-7.43h0ZM863.47,145.95l32.18-32.18,10.52,10.52-21.66,21.66h-21.03Z"/>
  </g>
  <g>
    <path class="cls-1" d="M280.77,173.2v-89.22h11.38v38.56h46.83v-38.56h11.38v89.22h-11.38v-40.6h-46.83v40.6h-11.38Z"/>
    <path class="cls-1" d="M399.75,173.2h-27.85v-89.22h28.98c8.7,0,16.14,1.78,22.31,5.33,6.17,3.55,10.9,8.65,14.19,15.3,3.29,6.65,4.94,14.58,4.94,23.8s-1.66,17.3-4.97,23.98c-3.31,6.69-8.14,11.83-14.49,15.42-6.35,3.59-14.05,5.39-23.11,5.39ZM383.29,163.14h15.75c10.86,0,18.95-3.08,24.28-9.25,5.33-6.17,7.99-14.66,7.99-25.48s-2.62-19.15-7.84-25.24c-5.23-6.09-13.01-9.13-23.35-9.13h-16.83v69.1Z"/>
    <path class="cls-1" d="M460.41,173.2v-89.22h30.54c6.95,0,12.67,1.19,17.16,3.56,4.49,2.38,7.82,5.64,10,9.79,2.18,4.15,3.26,8.88,3.26,14.19,0,5.91-1.35,11.06-4.04,15.45-2.69,4.39-6.86,7.57-12.49,9.52l20,36.71h-13.17l-18.56-34.67c-.68.04-1.38.06-2.1.06h-19.22v34.61h-11.38ZM471.79,128.47h18.68c7.03,0,12.05-1.52,15.06-4.55,3.01-3.03,4.52-7.17,4.52-12.4s-1.51-9.56-4.52-12.75c-3.01-3.19-8.07-4.79-15.18-4.79h-18.56v34.49Z"/>
  </g>
</svg>