<?xml version="1.0" encoding="UTF-8"?>
<svg id="Layer_1" data-name="Layer 1" xmlns="http://www.w3.org/2000/svg" viewBox="0 0 1424 256">
  <defs>
    <style>
      .cls-1 {
        fill: #2a2a2a;
      }

      .cls-2 {
        fill: #fff;
      }

      .cls-3 {
        fill: #5e5e5e;
      }

      .cls-4 {
        fill: #0d0d0d;
      }

      .cls-5 {
        fill: #999;
      }
    </style>
  </defs>
  <g>
    <rect class="cls-1" x="929.04" y="18.66" width="477.79" height="218.68" rx="25.63" ry="25.63"/>
    <path class="cls-4" d="M1381.2,26.16c10,0,18.13,8.13,18.13,18.13v167.42c0,10-8.13,18.13-18.13,18.13h-426.53c-10,0-18.13-8.13-18.13-18.13V44.29c0-10,8.13-18.13,18.13-18.13h426.53M1381.2,11.16h-426.53c-18.3,0-33.13,14.83-33.13,33.13v167.42c0,18.3,14.83,33.13,33.13,33.13h426.53c18.3,0,33.13-14.83,33.13-33.13V44.29c0-18.3-14.83-33.13-33.13-33.13h0Z"/>
  </g>
  <g>
    <path class="cls-2" d="M1006.45,182.29c-11.38,0-20.22-4.57-26.5-13.71-6.29-9.14-9.43-22.03-9.43-38.67s3.17-29.44,9.5-38.67c6.33-9.23,15.14-13.85,26.43-13.85s20.16,4.62,26.47,13.85c6.31,9.23,9.46,22.13,9.46,38.67s-3.13,29.53-9.39,38.67c-6.26,9.14-15.11,13.71-26.54,13.71ZM1006.45,170.9c7.5,0,13.27-3.6,17.31-10.8,4.05-7.2,6.07-17.27,6.07-30.21s-2.02-23.15-6.07-30.38c-4.05-7.22-9.82-10.83-17.31-10.83s-13.21,3.62-17.28,10.87c-4.07,7.25-6.1,17.36-6.1,30.34s2.03,23.01,6.1,30.21c4.07,7.2,9.83,10.8,17.28,10.8Z"/>
    <path class="cls-2" d="M1067.41,181.81c-2.56,0-4.74-.9-6.55-2.71-1.81-1.81-2.71-3.99-2.71-6.55s.9-4.74,2.71-6.55c1.81-1.81,3.99-2.71,6.55-2.71s4.74.9,6.55,2.71c1.81,1.81,2.71,3.99,2.71,6.55s-.9,4.74-2.71,6.55c-1.81,1.81-3.99,2.71-6.55,2.71Z"/>
    <path class="cls-2" d="M1120.28,78.75v102.17h-12.82v-90.1h-.69l-24.69,18.31v-13.99l22.22-16.39h15.98Z"/>
    <path class="cls-2" d="M1143.18,180.92v-9.39l33.94-36.82c3.79-4.11,6.95-7.73,9.46-10.83,2.51-3.11,4.41-6.07,5.69-8.88,1.28-2.81,1.92-5.79,1.92-8.95,0-5.35-1.84-9.58-5.52-12.69-3.68-3.11-8.24-4.66-13.68-4.66-5.81,0-10.43,1.74-13.89,5.21-3.45,3.47-5.18,8.09-5.18,13.85h-12.48c0-6.03,1.39-11.34,4.18-15.91,2.79-4.57,6.58-8.13,11.38-10.66s10.24-3.81,16.32-3.81,11.46,1.27,16.15,3.81c4.68,2.54,8.37,5.96,11.04,10.25,2.67,4.3,4.01,9.12,4.01,14.47,0,3.7-.66,7.3-1.99,10.8-1.33,3.5-3.66,7.46-6.99,11.9-3.34,4.43-8.02,9.85-14.06,16.25l-22.35,23.79v.82h47.11v11.45h-65.07Z"/>
    <path class="cls-2" d="M1261.8,182.29c-6.67,0-12.59-1.14-17.76-3.43s-9.27-5.46-12.31-9.53c-3.04-4.07-4.67-8.8-4.9-14.19h13.17c.37,4.85,2.61,8.67,6.72,11.49s9.07,4.22,14.88,4.22c6.4,0,11.69-1.65,15.87-4.94,4.18-3.29,6.27-7.59,6.27-12.89s-2.06-10.05-6.17-13.54-9.97-5.25-17.55-5.25h-8.3v-11.31h8.3c5.99,0,10.84-1.59,14.57-4.77,3.72-3.18,5.59-7.39,5.59-12.65s-1.65-9.14-4.94-12.21c-3.29-3.06-7.73-4.59-13.3-4.59-3.47,0-6.73.63-9.77,1.89-3.04,1.26-5.53,3.05-7.47,5.38-1.94,2.33-2.98,5.17-3.12,8.5h-12.55c.18-5.35,1.78-10.06,4.8-14.13,3.02-4.07,7-7.25,11.97-9.53,4.96-2.29,10.43-3.43,16.42-3.43,6.35,0,11.83,1.28,16.42,3.84,4.59,2.56,8.13,5.92,10.59,10.08,2.47,4.16,3.7,8.66,3.7,13.51,0,5.76-1.52,10.65-4.56,14.67-3.04,4.02-7.17,6.81-12.38,8.37v.82c6.54,1.05,11.61,3.78,15.22,8.19,3.61,4.41,5.42,9.84,5.42,16.29,0,5.58-1.51,10.56-4.53,14.95-3.02,4.39-7.16,7.85-12.41,10.39-5.26,2.54-11.22,3.81-17.9,3.81Z"/>
  </g>
  <rect class="cls-3" x="34.28" y="91.99" width="829.98" height="72.01"/>
  <circle class="cls-5" cx="244.84" cy="128" r="106.24"/>
</svg>