<?xml version="1.0" encoding="UTF-8"?>
<svg id="Layer_1" data-name="Layer 1" xmlns="http://www.w3.org/2000/svg" viewBox="0 0 2052.89 256">
  <defs>
    <style>
      .cls-1 {
        fill: #2a2a2a;
      }

      .cls-2 {
        fill: #fff;
      }

      .cls-3 {
        fill: #0d0d0d;
      }

      .cls-4 {
        fill: #c17830;
      }

      .cls-5 {
        fill: #0bc6c6;
      }
    </style>
  </defs>
  <path class="cls-2" d="M1637.82,182.29c-11.38,0-20.22-4.57-26.5-13.71-6.29-9.14-9.43-22.03-9.43-38.67s3.17-29.44,9.5-38.67c6.33-9.23,15.14-13.85,26.43-13.85s20.16,4.62,26.47,13.85c6.31,9.23,9.46,22.13,9.46,38.67s-3.13,29.53-9.39,38.67c-6.26,9.14-15.11,13.71-26.54,13.71ZM1637.82,170.9c7.5,0,13.27-3.6,17.31-10.8,4.05-7.2,6.07-17.27,6.07-30.21s-2.02-23.15-6.07-30.38c-4.05-7.22-9.82-10.83-17.31-10.83s-13.21,3.62-17.28,10.87c-4.07,7.25-6.1,17.36-6.1,30.34s2.03,23.01,6.1,30.21c4.07,7.2,9.83,10.8,17.28,10.8Z"/>
  <rect class="cls-1" x="7.19" y="11.16" width="2038.51" height="233.68"/>
  <path class="cls-5" d="M125.79,236.13v-10c322.3,0,619.59-52.64,907.09-103.54,142.41-25.22,289.67-51.29,437.63-70.5,165.94-21.54,315.51-32.02,457.25-32.02v10c-315.01,0-608.91,52.04-893.14,102.36-287.92,50.98-585.65,103.7-908.83,103.7Z"/>
  <rect class="cls-4" x="7.85" y="210.9" width="117.94" height="10"/>
  <rect class="cls-4" x="120.79" y="11.16" width="10" height="233.68"/>
  <rect class="cls-4" x="61.82" y="145.66" width="10" height="99.18"/>
  <rect class="cls-5" x="1927.76" y="35.1" width="117.94" height="10"/>
  <rect class="cls-5" x="1922.76" y="11.16" width="10" height="233.68"/>
  <rect class="cls-5" x="1981.73" y="11.16" width="10" height="99.18"/>
  <path class="cls-3" d="M2039.36,18.16v219.68H14.85V18.16h2024.51M2046.36,11.16H7.85v233.68h2038.51V11.16h0Z"/>
</svg>