<?xml version="1.0" encoding="UTF-8"?>
<svg id="Layer_1" data-name="Layer 1" xmlns="http://www.w3.org/2000/svg" viewBox="0 0 256 256">
  <defs>
    <style>
      .cls-1 {
        fill: #2a2a2a;
      }

      .cls-2 {
        fill: #0d0d0d;
      }

      .cls-3 {
        fill: #e6e6e6;
      }
    </style>
  </defs>
  <g>
    <rect class="cls-1" x="18.66" y="18.66" width="218.68" height="218.68" rx="25.63" ry="25.63"/>
    <path class="cls-2" d="M211.71,26.16c10,0,18.13,8.13,18.13,18.13v167.42c0,10-8.13,18.13-18.13,18.13H44.29c-10,0-18.13-8.13-18.13-18.13V44.29c0-10,8.13-18.13,18.13-18.13h167.42M211.71,11.16H44.29c-18.3,0-33.13,14.83-33.13,33.13v167.42c0,18.3,14.83,33.13,33.13,33.13h167.42c18.3,0,33.13-14.83,33.13-33.13V44.29c0-18.3-14.83-33.13-33.13-33.13h0Z"/>
  </g>
  <polygon class="cls-3" points="188.25 64.64 104.9 148 67.75 110.84 46.07 132.52 83.22 169.68 104.9 191.36 209.93 86.32 188.25 64.64"/>
</svg>