<?xml version="1.0" encoding="UTF-8"?>
<svg id="Layer_1" data-name="Layer 1" xmlns="http://www.w3.org/2000/svg" viewBox="0 0 2052.89 256">
  <defs>
    <style>
      .cls-1 {
        fill: #2a2a2a;
      }

      .cls-2 {
        fill: #fff;
      }

      .cls-3 {
        fill: #0d0d0d;
      }
    </style>
  </defs>
  <g>
    <rect class="cls-1" x="1045.17" y="18.66" width="477.79" height="218.68" rx="25.63" ry="25.63"/>
    <path class="cls-3" d="M1497.33,26.16c10,0,18.13,8.13,18.13,18.13v167.42c0,10-8.13,18.13-18.13,18.13h-426.53c-10,0-18.13-8.13-18.13-18.13V44.29c0-10,8.13-18.13,18.13-18.13h426.53M1497.33,11.16h-426.53c-18.3,0-33.13,14.83-33.13,33.13v167.42c0,18.3,14.83,33.13,33.13,33.13h426.53c18.3,0,33.13-14.83,33.13-33.13V44.29c0-18.3-14.83-33.13-33.13-33.13h0Z"/>
  </g>
  <path class="cls-2" d="M1122.58,182.29c-11.38,0-20.22-4.57-26.5-13.71-6.29-9.14-9.43-22.03-9.43-38.67s3.17-29.44,9.5-38.67c6.33-9.23,15.14-13.85,26.43-13.85s20.16,4.62,26.47,13.85c6.31,9.23,9.46,22.13,9.46,38.67s-3.13,29.53-9.39,38.67c-6.26,9.14-15.11,13.71-26.54,13.71ZM1122.58,170.9c7.5,0,13.27-3.6,17.31-10.8,4.05-7.2,6.07-17.27,6.07-30.21s-2.02-23.15-6.07-30.38c-4.05-7.22-9.82-10.83-17.31-10.83s-13.21,3.62-17.28,10.87c-4.07,7.25-6.1,17.36-6.1,30.34s2.03,23.01,6.1,30.21c4.07,7.2,9.83,10.8,17.28,10.8Z"/>
  <g>
    <rect class="cls-1" x="1560.41" y="18.66" width="477.79" height="218.68" rx="25.63" ry="25.63"/>
    <path class="cls-3" d="M2012.57,26.16c10,0,18.13,8.13,18.13,18.13v167.42c0,10-8.13,18.13-18.13,18.13h-426.53c-10,0-18.13-8.13-18.13-18.13V44.29c0-10,8.13-18.13,18.13-18.13h426.53M2012.57,11.16h-426.53c-18.3,0-33.13,14.83-33.13,33.13v167.42c0,18.3,14.83,33.13,33.13,33.13h426.53c18.3,0,33.13-14.83,33.13-33.13V44.29c0-18.3-14.83-33.13-33.13-33.13h0Z"/>
  </g>
  <path class="cls-2" d="M1637.82,182.29c-11.38,0-20.22-4.57-26.5-13.71-6.29-9.14-9.43-22.03-9.43-38.67s3.17-29.44,9.5-38.67c6.33-9.23,15.14-13.85,26.43-13.85s20.16,4.62,26.47,13.85c6.31,9.23,9.46,22.13,9.46,38.67s-3.13,29.53-9.39,38.67c-6.26,9.14-15.11,13.71-26.54,13.71ZM1637.82,170.9c7.5,0,13.27-3.6,17.31-10.8,4.05-7.2,6.07-17.27,6.07-30.21s-2.02-23.15-6.07-30.38c-4.05-7.22-9.82-10.83-17.31-10.83s-13.21,3.62-17.28,10.87c-4.07,7.25-6.1,17.36-6.1,30.34s2.03,23.01,6.1,30.21c4.07,7.2,9.83,10.8,17.28,10.8Z"/>
  <g>
    <rect class="cls-1" x="529.93" y="18.66" width="477.79" height="218.68" rx="25.63" ry="25.63"/>
    <path class="cls-3" d="M982.09,26.16c10,0,18.13,8.13,18.13,18.13v167.42c0,10-8.13,18.13-18.13,18.13h-426.53c-10,0-18.13-8.13-18.13-18.13V44.29c0-10,8.13-18.13,18.13-18.13h426.53M982.09,11.16h-426.53c-18.3,0-33.13,14.83-33.13,33.13v167.42c0,18.3,14.83,33.13,33.13,33.13h426.53c18.3,0,33.13-14.83,33.13-33.13V44.29c0-18.3-14.83-33.13-33.13-33.13h0Z"/>
  </g>
  <path class="cls-2" d="M607.34,182.29c-11.38,0-20.22-4.57-26.5-13.71-6.29-9.14-9.43-22.03-9.43-38.67s3.17-29.44,9.5-38.67c6.33-9.23,15.14-13.85,26.43-13.85s20.16,4.62,26.47,13.85c6.31,9.23,9.46,22.13,9.46,38.67s-3.13,29.53-9.39,38.67c-6.26,9.14-15.11,13.71-26.54,13.71ZM607.34,170.9c7.5,0,13.27-3.6,17.31-10.8,4.05-7.2,6.07-17.27,6.07-30.21s-2.02-23.15-6.07-30.38c-4.05-7.22-9.82-10.83-17.31-10.83s-13.21,3.62-17.28,10.87c-4.07,7.25-6.1,17.36-6.1,30.34s2.03,23.01,6.1,30.21c4.07,7.2,9.83,10.8,17.28,10.8Z"/>
  <g>
    <path class="cls-1" d="M40.32,18.66h426.53c14.14,0,25.63,11.48,25.63,25.63v167.42c0,14.14-11.48,25.63-25.63,25.63H40.32c-14.14,0-25.63-11.48-25.63-25.63V44.29c0-14.14,11.48-25.63,25.63-25.63Z"/>
    <path class="cls-3" d="M466.85,26.16c10,0,18.13,8.13,18.13,18.13v167.42c0,10-8.13,18.13-18.13,18.13H40.32c-10,0-18.13-8.13-18.13-18.13V44.29c0-10,8.13-18.13,18.13-18.13h426.53M466.85,11.16H40.32C22.02,11.16,7.19,25.99,7.19,44.29v167.42c0,18.3,14.83,33.13,33.13,33.13h426.53c18.3,0,33.13-14.83,33.13-33.13V44.29c0-18.3-14.83-33.13-33.13-33.13h0Z"/>
  </g>
  <path class="cls-2" d="M92.1,182.29c-11.38,0-20.22-4.57-26.5-13.71-6.29-9.14-9.43-22.03-9.43-38.67s3.17-29.44,9.5-38.67c6.33-9.23,15.14-13.85,26.43-13.85s20.16,4.62,26.47,13.85c6.31,9.23,9.46,22.13,9.46,38.67s-3.13,29.53-9.39,38.67c-6.26,9.14-15.11,13.71-26.54,13.71ZM92.1,170.9c7.5,0,13.27-3.6,17.31-10.8,4.05-7.2,6.07-17.27,6.07-30.21s-2.02-23.15-6.07-30.38c-4.05-7.22-9.82-10.83-17.31-10.83s-13.21,3.62-17.28,10.87c-4.07,7.25-6.1,17.36-6.1,30.34s2.03,23.01,6.1,30.21c4.07,7.2,9.83,10.8,17.28,10.8Z"/>
</svg>