<?xml version="1.0" encoding="UTF-8"?>
<svg id="Layer_1" data-name="Layer 1" xmlns="http://www.w3.org/2000/svg" viewBox="0 0 1024 256">
  <defs>
    <style>
      .cls-1 {
        fill: #fff;
      }

      .cls-2 {
        fill: #303030;
      }

      .cls-3 {
        fill: #515151;
      }

      .cls-4 {
        fill: #e6e6e6;
      }
    </style>
  </defs>
  <g>
    <rect class="cls-3" x="16.61" y="18.66" width="990.78" height="218.68" rx="25.63" ry="25.63"/>
    <path class="cls-2" d="M981.76,26.16c10,0,18.13,8.13,18.13,18.13v167.42c0,10-8.13,18.13-18.13,18.13H42.24c-10,0-18.13-8.13-18.13-18.13V44.29c0-10,8.13-18.13,18.13-18.13h939.52M981.76,11.16H42.24c-18.3,0-33.13,14.83-33.13,33.13v167.42c0,18.3,14.83,33.13,33.13,33.13h939.52c18.3,0,33.13-14.83,33.13-33.13V44.29c0-18.3-14.83-33.13-33.13-33.13h0Z"/>
  </g>
  <g>
    <path class="cls-1" d="M90.29,180.91h-31.88v-102.17h33.19c9.96,0,18.48,2.03,25.54,6.1,7.06,4.07,12.48,9.91,16.25,17.52s5.66,16.7,5.66,27.26-1.9,19.81-5.69,27.46c-3.79,7.66-9.33,13.54-16.59,17.66s-16.09,6.17-26.47,6.17ZM71.44,169.39h18.03c12.43,0,21.7-3.53,27.8-10.59,6.1-7.06,9.15-16.79,9.15-29.18s-2.99-21.93-8.98-28.9c-5.99-6.97-14.9-10.46-26.74-10.46h-19.27v79.13Z"/>
    <path class="cls-1" d="M158.25,180.91v-76.66h11.93v11.79h.82c1.42-3.88,3.94-7,7.58-9.36,3.63-2.35,7.74-3.53,12.31-3.53.91,0,2,.02,3.26.07,1.26.05,2.25.09,2.98.14v12.41c-.37-.09-1.28-.23-2.74-.41-1.46-.18-3.02-.27-4.66-.27-5.53,0-10.1,1.68-13.71,5.04-3.61,3.36-5.42,7.62-5.42,12.79v48h-12.34Z"/>
    <path class="cls-1" d="M239.98,182.56c-6.95,0-13.04-1.65-18.27-4.94-5.24-3.29-9.32-7.91-12.24-13.85-2.93-5.94-4.39-12.85-4.39-20.71s1.46-14.98,4.39-20.95c2.92-5.97,7-10.59,12.24-13.89,5.23-3.29,11.33-4.94,18.27-4.94s13.12,1.65,18.38,4.94,9.35,7.92,12.27,13.89c2.92,5.97,4.39,12.95,4.39,20.95s-1.46,14.77-4.39,20.71c-2.93,5.94-7.02,10.56-12.27,13.85-5.26,3.29-11.38,4.94-18.38,4.94ZM239.98,171.52c5.17,0,9.42-1.33,12.75-3.98,3.34-2.65,5.8-6.14,7.41-10.46,1.6-4.32,2.4-8.99,2.4-14.02s-.8-9.79-2.4-14.16c-1.6-4.36-4.07-7.89-7.41-10.56-3.34-2.67-7.59-4.01-12.75-4.01s-9.33,1.34-12.62,4.01c-3.29,2.67-5.74,6.18-7.34,10.53-1.6,4.34-2.4,9.07-2.4,14.19s.8,9.7,2.4,14.02c1.6,4.32,4.04,7.81,7.34,10.46,3.29,2.65,7.5,3.98,12.62,3.98Z"/>
    <path class="cls-1" d="M292.99,209.58v-105.32h11.93v12.27h1.37c.87-1.37,2.08-3.1,3.63-5.18,1.55-2.08,3.79-3.94,6.72-5.59,2.92-1.65,6.88-2.47,11.86-2.47,6.4,0,12.03,1.6,16.9,4.8,4.87,3.2,8.69,7.76,11.45,13.68,2.77,5.92,4.15,12.93,4.15,21.02s-1.37,15.18-4.11,21.12c-2.74,5.94-6.55,10.54-11.42,13.78-4.87,3.25-10.5,4.87-16.9,4.87-4.85,0-8.75-.83-11.73-2.5-2.97-1.67-5.26-3.57-6.86-5.69-1.6-2.13-2.83-3.9-3.7-5.31h-.96v40.53h-12.34ZM326.73,171.52c4.8,0,8.81-1.29,12.03-3.87,3.22-2.58,5.65-6.06,7.27-10.42,1.62-4.37,2.43-9.22,2.43-14.57s-.8-10.09-2.4-14.37c-1.6-4.27-4.01-7.67-7.23-10.18-3.22-2.51-7.26-3.77-12.1-3.77-7.04,0-12.39,2.61-16.04,7.82-3.66,5.21-5.49,12.05-5.49,20.5s1.85,15.5,5.55,20.85,9.03,8.02,15.98,8.02Z"/>
    <path class="cls-1" d="M407.71,182.56c-6.35,0-11.98-1.62-16.87-4.87-4.89-3.25-8.71-7.84-11.45-13.78-2.74-5.94-4.11-12.98-4.11-21.12s1.38-15.1,4.15-21.02c2.76-5.92,6.59-10.48,11.49-13.68,4.89-3.2,10.51-4.8,16.87-4.8,4.98,0,8.94.82,11.86,2.47,2.92,1.65,5.18,3.51,6.75,5.59,1.58,2.08,2.78,3.81,3.6,5.18h.96v-37.78h12.34v102.17h-11.93v-11.86h-1.37c-.82,1.42-2.05,3.19-3.67,5.31-1.62,2.13-3.91,4.02-6.86,5.69-2.95,1.67-6.87,2.5-11.76,2.5ZM409.56,171.52c6.95,0,12.27-2.67,15.98-8.02s5.55-12.3,5.55-20.85-1.82-15.29-5.45-20.5c-3.63-5.21-8.99-7.82-16.08-7.82-4.85,0-8.88,1.26-12.1,3.77-3.22,2.51-5.63,5.91-7.23,10.18-1.6,4.27-2.4,9.06-2.4,14.37s.81,10.21,2.43,14.57c1.62,4.37,4.06,7.84,7.3,10.42,3.25,2.58,7.24,3.87,12,3.87Z"/>
    <path class="cls-1" d="M496.16,182.56c-6.95,0-13.04-1.65-18.27-4.94-5.24-3.29-9.32-7.91-12.24-13.85-2.93-5.94-4.39-12.85-4.39-20.71s1.46-14.98,4.39-20.95c2.92-5.97,7-10.59,12.24-13.89,5.23-3.29,11.33-4.94,18.27-4.94s13.12,1.65,18.38,4.94,9.35,7.92,12.27,13.89c2.92,5.97,4.39,12.95,4.39,20.95s-1.46,14.77-4.39,20.71c-2.93,5.94-7.02,10.56-12.27,13.85-5.26,3.29-11.38,4.94-18.38,4.94ZM496.16,171.52c5.17,0,9.42-1.33,12.75-3.98,3.34-2.65,5.8-6.14,7.41-10.46,1.6-4.32,2.4-8.99,2.4-14.02s-.8-9.79-2.4-14.16c-1.6-4.36-4.07-7.89-7.41-10.56-3.34-2.67-7.59-4.01-12.75-4.01s-9.33,1.34-12.62,4.01c-3.29,2.67-5.74,6.18-7.34,10.53-1.6,4.34-2.4,9.07-2.4,14.19s.8,9.7,2.4,14.02c1.6,4.32,4.04,7.81,7.34,10.46,3.29,2.65,7.5,3.98,12.62,3.98Z"/>
    <path class="cls-1" d="M563.84,180.91l-23.25-76.66h13.1l9.33,33.46c1.1,3.98,2.29,8.45,3.57,13.41,1.28,4.96,2.54,10.48,3.77,16.56,1.23-5.85,2.46-11.25,3.67-16.18,1.21-4.94,2.41-9.53,3.6-13.78l9.19-33.46h13.17l9.05,33.46c1.1,4.11,2.25,8.63,3.46,13.54,1.21,4.91,2.41,10.32,3.6,16.22,1.28-5.85,2.55-11.23,3.81-16.15,1.26-4.91,2.46-9.45,3.6-13.61l9.33-33.46h13.1l-23.25,76.66h-12.27l-9.94-34.7c-1.28-4.39-2.5-8.91-3.67-13.58-1.17-4.66-2.34-9.44-3.53-14.33-1.14,4.89-2.32,9.69-3.53,14.4-1.21,4.71-2.43,9.21-3.67,13.51l-9.94,34.7h-12.27Z"/>
    <path class="cls-1" d="M673.9,134.97v45.94h-12.34v-76.66h11.86l.07,14.19c2.47-5.44,5.7-9.33,9.7-11.66,4-2.33,8.58-3.5,13.75-3.5,7.77,0,14.03,2.4,18.79,7.2,4.75,4.8,7.13,12.05,7.13,21.74v48.69h-12.34v-47.66c0-5.9-1.54-10.51-4.63-13.85-3.09-3.34-7.3-5.01-12.65-5.01s-10.14,1.79-13.82,5.38c-3.68,3.59-5.52,8.65-5.52,15.19Z"/>
  </g>
  <polygon class="cls-4" points="902.25 170.13 953.05 107.95 851.45 107.95 902.25 170.13"/>
</svg>