<?xml version="1.0" encoding="UTF-8"?>
<svg id="Layer_1" data-name="Layer 1" xmlns="http://www.w3.org/2000/svg" viewBox="0 0 1024 256">
  <defs>
    <style>
      .cls-1 {
        fill: #00b0d0;
      }

      .cls-2 {
        fill: #383838;
      }

      .cls-3 {
        fill: #c4c4c4;
      }

      .cls-4 {
        fill: #454545;
      }

      .cls-5 {
        fill: #202020;
      }
    </style>
  </defs>
  <path class="cls-1" d="M981.76,11.16H9.11v233.68h972.65c18.3,0,33.13-14.83,33.13-33.13V44.29c0-18.3-14.83-33.13-33.13-33.13Z"/>
  <path class="cls-2" d="M981.76,11.16h-200.55v233.68h200.55c18.3,0,33.13-14.83,33.13-33.13V44.29c0-18.3-14.83-33.13-33.13-33.13Z"/>
  <path class="cls-5" d="M981.76,26.16c10,0,18.13,8.13,18.13,18.13v167.42c0,10-8.13,18.13-18.13,18.13H24.11V26.16h957.65M981.76,11.16H9.11v233.68h972.65c18.3,0,33.13-14.83,33.13-33.13V44.29c0-18.3-14.83-33.13-33.13-33.13h0Z"/>
  <g>
    <path class="cls-3" d="M822.98,181.84l8.15-8.15v-17.95l54.67-54.67-8.97-8.97,15.12-15.12,8.97,8.97,20.9-20.9c4.41-4.41,10.29-6.85,16.53-6.85s12.11,2.43,16.53,6.85c9.11,9.12,9.11,23.95,0,33.06l-20.9,20.9,8.97,8.97-15.12,15.12-8.97-8.97-54.67,54.67h-17.95l-8.15,8.14-15.12-15.12ZM858.65,147.95h26.69l23.66-23.66-13.34-13.34-37.01,37.01Z"/>
    <path class="cls-4" d="M938.34,60.21c5.71,0,11.08,2.22,15.12,6.26,4.04,4.04,6.27,9.41,6.27,15.12s-2.23,11.08-6.27,15.12l-19.49,19.49-2.83,2.83,2.83,2.83,6.15,6.14-12.29,12.29-6.14-6.14-2.83-2.83-2.83,2.83-52.67,52.67h-17.95l-1.17,1.17-6.14,6.14-12.29-12.29,6.14-6.15,1.17-1.17v-17.95l52.67-52.67,2.83-2.83-2.83-2.83-6.14-6.14,12.29-12.29,6.15,6.14,2.83,2.83,2.83-2.83,19.49-19.49c4.04-4.04,9.4-6.26,15.12-6.26M853.82,149.95h32.34l1.17-1.17,21.66-21.66,2.83-2.83-2.83-2.83-10.52-10.52-2.83-2.83-2.83,2.83-32.18,32.18-6.83,6.83M938.34,56.21c-6.5,0-12.99,2.48-17.95,7.43l-19.49,19.49-8.97-8.97-17.95,17.95,8.97,8.97-53.84,53.84v17.95l-8.97,8.97,17.95,17.95,8.97-8.97h17.95l53.84-53.84,8.97,8.97,17.95-17.95-8.97-8.97,19.49-19.49c9.92-9.92,9.92-25.98,0-35.89-4.96-4.95-11.45-7.43-17.95-7.43h0ZM863.47,145.95l32.18-32.18,10.52,10.52-21.66,21.66h-21.03Z"/>
  </g>
</svg>