<?xml version="1.0" encoding="UTF-8"?>
<svg id="Layer_1" data-name="Layer 1" xmlns="http://www.w3.org/2000/svg" xmlns:xlink="http://www.w3.org/1999/xlink" viewBox="0 0 2048 256">
  <defs>
    <style>
      .cls-1 {
        fill: #2a2a2a;
      }

      .cls-2 {
        fill: #fff;
      }

      .cls-3 {
        fill: #0d0d0d;
      }

      .cls-4 {
        fill: #999;
      }

      .cls-5 {
        fill: url(#linear-gradient);
      }
    </style>
    <linearGradient id="linear-gradient" x1="623.93" y1="128" x2="1424.07" y2="128" gradientUnits="userSpaceOnUse">
      <stop offset="0" stop-color="#777"/>
      <stop offset=".5" stop-color="#979797"/>
      <stop offset="1" stop-color="#787878"/>
    </linearGradient>
  </defs>
  <g>
    <rect class="cls-1" x="1552.71" y="18.66" width="477.79" height="218.68" rx="25.63" ry="25.63"/>
    <path class="cls-3" d="M2004.87,26.16c10,0,18.13,8.13,18.13,18.13v167.42c0,10-8.13,18.13-18.13,18.13h-426.53c-10,0-18.13-8.13-18.13-18.13V44.29c0-10,8.13-18.13,18.13-18.13h426.53M2004.87,11.16h-426.53c-18.3,0-33.13,14.83-33.13,33.13v167.42c0,18.3,14.83,33.13,33.13,33.13h426.53c18.3,0,33.13-14.83,33.13-33.13V44.29c0-18.3-14.83-33.13-33.13-33.13h0Z"/>
  </g>
  <path class="cls-2" d="M1630.6,78.74v102.17h-12.82v-90.1h-.69l-24.69,18.31v-13.99l22.22-16.39h15.98Z"/>
  <g>
    <rect class="cls-1" x="17.5" y="18.66" width="477.79" height="218.68" rx="25.63" ry="25.63"/>
    <path class="cls-3" d="M469.66,26.16c10,0,18.13,8.13,18.13,18.13v167.42c0,10-8.13,18.13-18.13,18.13H43.13c-10,0-18.13-8.13-18.13-18.13V44.29c0-10,8.13-18.13,18.13-18.13h426.53M469.66,11.16H43.13c-18.3,0-33.13,14.83-33.13,33.13v167.42c0,18.3,14.83,33.13,33.13,33.13h426.53c18.3,0,33.13-14.83,33.13-33.13V44.29c0-18.3-14.83-33.13-33.13-33.13h0Z"/>
  </g>
  <path class="cls-2" d="M94.91,182.29c-11.38,0-20.22-4.57-26.5-13.71-6.29-9.14-9.43-22.03-9.43-38.67s3.17-29.44,9.5-38.67c6.33-9.23,15.14-13.85,26.43-13.85s20.16,4.62,26.47,13.85c6.31,9.23,9.46,22.13,9.46,38.67s-3.13,29.53-9.39,38.67c-6.26,9.14-15.11,13.71-26.54,13.71ZM94.91,170.9c7.5,0,13.27-3.6,17.31-10.8,4.05-7.2,6.07-17.27,6.07-30.21s-2.02-23.15-6.07-30.38c-4.05-7.22-9.82-10.83-17.31-10.83s-13.21,3.62-17.28,10.87c-4.07,7.25-6.1,17.36-6.1,30.34s2.03,23.01,6.1,30.21c4.07,7.2,9.83,10.8,17.28,10.8Z"/>
  <rect class="cls-5" x="623.93" y="69.91" width="800.13" height="116.18"/>
  <path class="cls-4" d="M557.88,128c0,32.08,26.01,58.09,58.09,58.09v-116.18c-32.08,0-58.09,26.01-58.09,58.09Z"/>
  <path class="cls-4" d="M1490.12,128c0-32.08-26.01-58.09-58.09-58.09v116.18c32.08,0,58.09-26.01,58.09-58.09Z"/>
</svg>